<?xml version="1.0" encoding="iso-8859-1"?>
<!-- Generator: Adobe Illustrator 19.0.0, SVG Export Plug-In . SVG Version: 6.00 Build 0)  -->
<svg version="1.1" id="Capa_1" xmlns="http://www.w3.org/2000/svg" xmlns:xlink="http://www.w3.org/1999/xlink" x="0px" y="0px"
	 viewBox="0 0 511.985 511.985" style="enable-background:new 0 0 511.985 511.985;" xml:space="preserve">
<g>
	<g>
		<path d="M281.381,2.044c-21.398-2.721-43.055-2.726-64.455-0.014c-0.31,0.084-0.615,0.187-0.913,0.308
			c-0.581,0.129-1.146,0.32-1.685,0.57c-0.498,0.252-0.968,0.554-1.404,0.901c-0.403,0.293-0.779,0.622-1.122,0.984
			c-0.435,0.491-0.81,1.032-1.117,1.611c-0.173,0.223-0.334,0.456-0.483,0.696L191.572,50.22l-0.056,0.131l-25.146,58.201
			c-0.054,0.103-0.086,0.21-0.137,0.316L8.384,474.21c-3.764,8.655,0.201,18.722,8.855,22.486c4.346,1.89,9.282,1.891,13.628,0.001
			l149.875-64.74v54.432c0.023,14.141,11.492,25.593,25.633,25.596c14.113,0.02,25.57-11.405,25.589-25.519
			c0.001-0.372-0.007-0.743-0.023-1.115v-17.621c2.73,1.025,5.618,1.564,8.533,1.592c14.132-0.015,25.585-11.468,25.6-25.6V395.06
			l68.267-29.493v44.022c0.023,14.141,11.492,25.593,25.633,25.596c14.113,0.02,25.57-11.405,25.589-25.519
			c0-0.372-0.007-0.743-0.023-1.115v-17.621c2.73,1.025,5.618,1.564,8.533,1.592c14.132-0.015,25.585-11.468,25.6-25.6v-38.166
			l78.217-33.788c0.471-0.262,0.915-0.57,1.326-0.92c0.361-0.213,0.707-0.453,1.032-0.717c0.706-0.776,1.328-1.623,1.856-2.53
			c0.253-0.563,0.442-1.152,0.565-1.756c0.109-0.284,0.203-0.574,0.279-0.868C520.779,147.979,421.579,19.873,281.381,2.044z
			 M180.119,119.757c20.356-5.287,41.989,0.62,56.832,15.52c23.327,23.327,23.327,61.148,0,84.475
			c-23.327,23.327-61.148,23.327-84.475,0c-3.886-3.956-7.185-8.449-9.795-13.342L180.119,119.757z M108.608,285.273
			c26.286,10.303,39.243,39.964,28.941,66.25c-10.303,26.286-39.964,39.243-66.25,28.941c-1.088-0.426-2.161-0.89-3.217-1.39
			L108.608,285.273z M419.215,310.365c-0.977-3.662-4.282-6.22-8.073-6.247c-4.712-0.001-8.532,3.817-8.533,8.529
			c0,0.001,0,0.003,0,0.004v54.271c-0.005,4.711-3.822,8.529-8.533,8.533c-4.685-0.066-8.468-3.848-8.533-8.533v-8.533
			c0-4.713-3.82-8.533-8.533-8.533s-8.533,3.82-8.533,8.533v50.162c0.173,4.411-2.757,8.344-7.033,9.442
			c-4.666,0.806-9.103-2.324-9.908-6.99c-0.081-0.467-0.122-0.94-0.125-1.414v-76.8c-0.015-14.132-11.468-25.585-25.6-25.6
			c-4.713,0-8.533,3.82-8.533,8.533s3.821,8.533,8.533,8.533c4.711,0.005,8.529,3.823,8.533,8.533v14.188l-80.109,34.61
			l-0.026,0.011l-0.048,0.021c-0.215,0.093-0.35,0.276-0.553,0.384c-0.791,0.385-1.518,0.89-2.155,1.497
			c-0.618,0.898-1.216,1.809-1.793,2.734c-0.264,0.75-0.422,1.534-0.47,2.328c-0.077,0.293-0.137,0.59-0.18,0.89v54.271
			c-0.005,4.711-3.822,8.529-8.533,8.533c-4.685-0.066-8.468-3.848-8.533-8.533v-8.533c0-4.713-3.82-8.533-8.533-8.533
			s-8.533,3.82-8.533,8.533v50.163c0.173,4.411-2.757,8.344-7.033,9.442c-4.666,0.806-9.103-2.324-9.908-6.99
			c-0.081-0.467-0.122-0.94-0.125-1.414v-76.8c-0.015-14.132-11.468-25.585-25.6-25.6c-4.713,0-8.533,3.821-8.533,8.533
			c0,4.713,3.82,8.533,8.533,8.533c4.711,0.005,8.529,3.822,8.533,8.533v3.777L24.051,480.985l37.255-86.229
			c34.19,15.842,74.748,0.968,90.59-33.222c15.842-34.19,0.968-74.748-33.222-90.59c-1.076-0.499-2.165-0.969-3.265-1.411
			l19.161-44.349c26.263,33.293,74.543,38.992,107.837,12.729c33.293-26.263,38.992-74.543,12.729-107.837
			c-16.024-20.313-41.199-31.19-66.973-28.935L205.1,61.937c57.88,0.047,117.761,26.513,164.534,73.282
			c46.835,46.831,73.314,106.632,73.34,164.884L419.215,310.365z M486.484,281.307l-26.514,11.454
			c-3.866-64.359-31.807-124.906-78.269-169.609C333.704,75.147,272.557,47.02,212.446,44.934l11.424-26.441
			c131.019-14.029,248.604,80.81,262.633,211.829C488.318,247.268,488.311,264.361,486.484,281.307z"/>
	</g>
</g>
<g>
	<g>
		<path d="M380.326,210.001c-8.78-8.832-20.73-13.782-33.183-13.746c-25.923-0.003-46.94,21.01-46.943,46.933
			c-0.003,25.923,21.01,46.941,46.933,46.943s46.94-21.01,46.943-46.933C394.077,230.747,389.131,218.805,380.326,210.001z
			 M368.264,264.305c-0.002,0.002-0.003,0.003-0.005,0.005c-11.817,11.283-30.416,11.283-42.233,0
			c-11.665-11.662-11.667-30.573-0.005-42.238c11.662-11.665,30.573-11.667,42.238-0.005S379.926,252.64,368.264,264.305z"/>
	</g>
</g>
<g>
	<g>
		<path d="M264.609,283.056c-6.386-6.423-15.076-10.024-24.133-10c-18.856-0.005-34.146,15.277-34.151,34.133
			c-0.005,18.856,15.277,34.146,34.133,34.151c18.856,0.005,34.146-15.277,34.151-34.133
			C274.612,298.148,271.014,289.461,264.609,283.056z M252.545,319.253c-0.001,0.001-0.002,0.002-0.003,0.003h0
			c-6.752,6.45-17.382,6.45-24.133,0c-6.666-6.664-6.667-17.47-0.003-24.136s17.47-6.667,24.136-0.003
			C259.209,301.781,259.21,312.587,252.545,319.253z"/>
	</g>
</g>
<g>
</g>
<g>
</g>
<g>
</g>
<g>
</g>
<g>
</g>
<g>
</g>
<g>
</g>
<g>
</g>
<g>
</g>
<g>
</g>
<g>
</g>
<g>
</g>
<g>
</g>
<g>
</g>
<g>
</g>
</svg>
