<svg height="512" viewBox="0 0 60 60" width="512" xmlns="http://www.w3.org/2000/svg"><g id="027---Bonzai-tree" fill="none"><g id="Icons" transform="translate(1 1)"><path id="Shape" d="m22 54v3c0 .5522847-.4477153 1-1 1h-4c-.5522847 0-1-.4477153-1-1v-3.06c.72.06.81.06 6 .06z" fill="#0377bc"/><path id="Shape" d="m40 53.94v3.06c0 .5522847-.4477153 1-1 1h-4c-.5522847 0-1-.4477153-1-1v-3c5.23 0 5.3 0 6-.06z" fill="#0377bc"/><g fill="#a0522d"><path id="Shape" d="m37.47 31.77-3.33 4.23c-.8970799.0580049-1.7660375.3362087-2.53.81-.7892117-1.0553017-1.8602768-1.8663995-3.09-2.34l6.48-6.47c.2174576.1324448.3805587.338094.46.58.4062749 1.2082885 1.0954134 2.3019957 2.01 3.19z"/><path id="Shape" d="m31.77 26h-12.77c-2.209139 0-4-1.790861-4-4v-1c1.389772.0047461 2.7607743-.3208669 4-.95.0271333 1.0849951.9146657 1.9503392 2 1.95h10.26c-.0566144.1251895-.1001778.2558797-.13.39-.2168159.8891481-.1610656 1.8229642.16 2.68.119716.3291878.2810234.6417209.48.93z"/><path id="Shape" d="m37 13c-10 0-9 .1-9-.19.1024545-1.4671277-.5217023-2.89110224-1.67-3.81h5.05c.8218332 1.9547547 2.5467839 3.3847463 4.62 3.83.81.17.9.1 1 .17z"/></g><path id="Shape" d="m48.0000019 45c.0011574 1.8083448-.5424601 3.5751017-1.5600019 5.07-1.4797983 2.1671966-3.831786 3.5805805-6.44 3.87-.7.09 1.1.06-23 .06-2.9738528-.0020053-5.7547299-1.4729134-7.43-3.93-1.02108202-1.4937573-1.56821189-3.2606034-1.57-5.07z" fill="#0377bc"/><path id="Shape" d="m45.0000019 45c.0011574 1.8083448-.5424601 3.5751017-1.5600019 5.07-1.6772636 2.4600096-4.4626088 3.9313008-7.44 3.93h-19c-2.9738528-.0020053-5.7547299-1.4729134-7.43-3.93-1.02108202-1.4937573-1.56821189-3.2606034-1.57-5.07z" fill="#02a9f4"/><path id="Shape" d="m51 43c0 1.1045695-.8954305 2-2 2h-42c-1.1045695 0-2-.8954305-2-2s.8954305-2 2-2h42c1.1045695 0 2 .8954305 2 2z" fill="#fdd834"/><path id="Shape" d="m48 43c0 1.1045695-.8954305 2-2 2h-39c-1.1045695 0-2-.8954305-2-2s.8954305-2 2-2h39c1.1045695 0 2 .8954305 2 2z" fill="#ffeb3a"/><path id="Shape" d="m28 12.81c.0047886.043201.0047886.086799 0 .13-.3270211 2.4647232-2.5206394 4.2459412-5 4.06-.3409963-.0209181-.669075.1336936-.87.41-2.725528 3.6843496-7.8071388 4.6894082-11.73 2.32-.46738981-.2793199-1.07000567-.1631011-1.4.27-1.1083295 1.5038635-2.96258034 2.2644239-4.80770287 1.9719814-1.84512252-.2924424-3.37331447-1.5891026-3.96229713-3.3619814-.84-2.67.77-4.55 2.77-5.61.41114681-.2131341.62216379-.6806815.51-1.13-.3340555-.9837033-.47331493-2.02305422-.41-3.06.7698125-3.17330754 3.8145172-5.2506167 7.05-4.81.2301885.05110819.4710329.01923173.68-.09 1.2930173-.64447857 2.7260407-.9572007 4.17-.91 4.74 0 6.34 3 6.82 4.34s2.24-.18 4.52 1.66c1.1445597.92100247 1.7648334 2.3446425 1.66 3.81z" fill="#60a917"/><path id="Shape" d="m26.33 9c-2.28-1.84-4-.27-4.52-1.66-1-2.87-3.81-4.82-8.38-4.23 2.4589778.25458888 4.5523913 1.90052553 5.38 4.23.5 1.39 2.24-.18 4.52 1.66 1.1482977.91889776 1.7724545 2.3428723 1.67 3.81.0047886.043201.0047886.086799 0 .13-.3270211 2.4647232-2.5206394 4.2459412-5 4.06-.3409963-.0209181-.669075.1336936-.87.41-1.3602444 1.8362189-3.377356 3.0758648-5.63 3.46 3.2998614.5747977 6.6411611-.7648196 8.63-3.46.200925-.2763064.5290037-.4309181.87-.41 2.4793606.1859412 4.6729789-1.5952768 5-4.06.0047886-.043201.0047886-.086799 0-.13.1024545-1.4671277-.5217023-2.89110224-1.67-3.81z" fill="#549414"/><path id="Shape" d="m42.05 12c-.3218469-.1985304-.7281531-.1985304-1.05 0-1.8300124 1.1668014-4.117195 1.3577423-6.1153436.5105273s-3.4510381-2.62394645-3.8846564-4.7505273c-.0792829-.37139569-.3620966-.66583188-.73-.76-1.3720605-.5454907-2.271923-1.87348169-2.27-3.35-.09-1.92 2.49-3.35 4.46-2.27.3314032.21541861.7585968.21541861 1.09 0 1.4028772-1.08212708 3.1876587-1.54264382 4.938971-1.27437377 1.7513122.26827005 3.3164036 1.24192806 4.331029 2.69437377.2243761.31874239.6221934.46593478 1 .37 2.2602708-.58171117 4.6223226.47768432 5.6911217 2.55250487 1.0687992 2.07482056.5599987 4.61307373-1.2259026 6.11566103s-4.3737761 1.5697552-6.2352191.1618341z" fill="#60a917"/><path id="Shape" d="m49.94 7.22c-.2178947-1.37810701-1.0016946-2.60248981-2.1620085-3.37729849-1.160314-.77480868-2.591592-1.0295613-3.9479915-.70270151-.3778066.09593478-.7756239-.05125761-1-.37-1.5286099-2.18420743-4.2374658-3.21143097-6.83-2.59 1.5517098.36301266 2.9152409 1.28508724 3.83 2.59.2243761.31874239.6221934.46593478 1 .37 1.3563995-.32685979 2.7876775-.07210717 3.9479915.70270151 1.1603139.77480868 1.9441138 1.99919148 2.1620085 3.37729849.3767577 2.45463712-1.1051696 4.8137973-3.48 5.54 1.6545378.5363258 3.4689079.1743046 4.7909167-.9559313s1.9616823-2.86627061 1.6890833-4.5840687z" fill="#549414"/><path id="Shape" d="m40 41h-21c.0028552-3.0148647 1.9357332-5.6892158 4.7974709-6.637833 2.8617377-.9486173 6.0093682.0416319 7.8125291 2.457833 1.623932-1.0000805 3.6490681-1.0910379 5.3561162-.2405657 1.7070481.8504721 2.8541531 2.5218786 3.0338838 4.4205657z" fill="#008a00"/><path id="Shape" d="m33 36.22c2.1913854.616149 3.7798094 2.5143156 4 4.78h3c-.1573779-1.6293255-1.0297724-3.1047687-2.3815769-4.027858-1.3518045-.9230894-3.0435774-1.1986062-4.6184231-.752142z" fill="#007900"/><path id="Shape" d="m57.91 30c-.3814956 1.8281035-1.7499594 3.2912398-3.5484989 3.7939894-1.7985394.5027496-3.7273476-.0386931-5.0015011-1.4039894-.3552027-.4163653-.9791222-.4698442-1.4-.12-2.0342447 1.6060876-4.7205206 2.1271396-7.207712 1.3980667-2.4871915-.7290729-4.4670529-2.6179144-5.312288-5.0680667-.1035321-.3470248-.3865916-.6109585-.74-.69-1.7261416-.3149667-3.1106559-1.6065787-3.544567-3.3067229-.4339111-1.7001441.1622936-3.4972755 1.5263747-4.6009294 1.364081-1.1036539 3.2460757-1.3115899 4.8181923-.5323477.325329.1516414.7069751.1172932 1-.09 3.16-2.31 5-.78 5.89-1.7.5850667-.6888419 1.3502753-1.2012893 2.21-1.48 2.8515946-.7386561 5.8176408.7019949 7 3.4.4535185 1.072348.5922632 2.2516777.4 3.4-.1107857.5103401.1897807 1.0199962.69 1.17 2.3997698.8416749 3.7854743 3.3505746 3.22 5.83z" fill="#60a917"/><path id="Shape" d="m54.69 24.18c-.5048903-.1502091-.8066875-.666326-.69-1.18.2036668-1.1487169.075308-2.3316997-.37-3.41-1.1788186-2.7019279-4.1457999-4.1472716-7-3.41 3.0430523.743167 4.966394 3.7448124 4.37 6.82-.1107857.5103401.1897807 1.0199962.69 1.17 2.0244176.7402522 3.3576436 2.6817181 3.3215731 4.8369301s-1.4335179 4.0509763-3.4815731 4.7230699c2.6399211.8726098 5.48739-.560079 6.3599999-3.2.8726099-2.6399211-.5600789-5.4873901-3.1999999-6.36z" fill="#549414"/></g><g id="Layer_5" fill="#000"><path id="Shape" d="m.28 19.89c.72247534 2.131692 2.56519456 3.6886005 4.78759072 4.0450225 2.22239617.3564221 4.45956282-.5461651 5.81240928-2.3450225 1.2580853.7458746 2.6644679 1.2067038 4.12 1.35-.0160385 1.3364477.5036568 2.6236857 1.4430827 3.5743847.9394258.950699 2.2203734 1.4857115 3.5569173 1.4856153h12.3c.5102619.5988455 1.1360753 1.0886125 1.84 1.44l-4.88 4.89c-2.2487674-.6601862-4.6739289-.301069-6.6348672.9824892-1.9609383 1.2835583-3.2604023 3.3624442-3.5551328 5.6875108h-11.07c-1.65685425.0138071-2.98880712 1.3681458-2.975 3.025s1.36814575 2.9888071 3.025 2.975c.44725518 4.3687851 3.6925115 7.9345104 8 8.79v3.21c0 .5522847.4477153 1 1 1h5c1.1045695 0 2-.8954305 2-2v-2h9.95v2c0 1.1045695.8954305 2 2 2h4c1.1045695 0 2-.8954305 2-2v-2.2c4.3107321-.8566087 7.5568844-4.4273763 8-8.8 1.6568542 0 3-1.3431458 3-3s-1.3431458-3-3-3h-8.16c-.5805387-2.3678861-2.4245533-4.2196001-4.79-4.81l1.56-2c3.2808273 2.4488689 7.8010526 2.3749015 11-.18 1.7133704 1.943318 4.5022443 2.5255209 6.85 1.43 2.2264399-1.0386888 3.6107199-3.3134536 3.5101691-5.7682037-.1005508-2.4547502-1.6662376-4.6086793-3.9701691-5.4617963.4037997-2.0619767-.1553553-4.1955148-1.5185865-5.7943903-1.3632313-1.5988755-3.3815289-2.4883211-5.4814135-2.4156097-1.6797473-.0210314-3.2802095.7131256-4.36 2-2.06 0-3.53-.05-5.7 1.58-2.6953711-1.3556324-5.9794243-.2728792-7.34 2.42h-9.6c-.3423205-.0104282-.6554943-.195314-.83-.49 1.0590599-.6547323 1.9824636-1.5068438 2.72-2.51 2.6539941.1962187 5.0937635-1.4606706 5.89-4h8.31c1.5426832.0991541 3.0759527-.3043378 4.37-1.15 1.919157 1.4140742 4.4934078 1.5578769 6.5581188.3663494 2.064711-1.1915276 3.2281922-3.4923444 2.9640655-5.86152281-.2641267-2.36917844-1.9057547-4.35726899-4.1821843-5.06482659-1.0209876-.34334312-2.1211257-.37467617-3.16-.09-1.1750857-1.65102826-2.9653043-2.75954158-4.9670105-3.07560045-2.0017061-.31605886-4.046375.18694591-5.6729895 1.39560045-2.58-1.46-6.07.41-6 3.19.09 1.74 1.14 3.77 3 4.28 0 .1.31.06-3.37.06-1.148763-.77482184-2.5302966-1.12815523-3.91-1-.5-1.55-2.33-5.05-7.72-5.05-1.6050578-.04987667-3.1979708.29342354-4.64 1-3.78964916-.55205313-7.37065226 1.89033005-8.24 5.62-.10645194 1.1817335.02966497 2.3727565.4 3.5-2.9 1.52-4.11 4.06-3.24 6.77zm35.5 10.75c.3463227.7934855.8079734 1.5314526 1.37 2.19l-2.55 3.25c-.6008819.0771656-1.1871521.2422647-1.74.49-.4885968-.5230735-1.0432657-.9802551-1.65-1.36zm4.22 23.36h-22c-1.9104302.0008155-3.7569386-.6880742-5.2-1.94h32.4c-1.4430614 1.2519258-3.2895698 1.9408155-5.2 1.94zm-18 4h-4v-2h4zm18 0h-4v-2h4zm6.88-7.94h-35.76c-.5582451-.9370718-.9189678-1.9784035-1.06-3.06h37.88c-.1397047 1.0850465-.5004715 2.129909-1.06 3.07zm4.12-6.06c0 .5522847-.4477153 1-1 1h-42c-.55228475 0-1-.4477153-1-1s.44771525-1 1-1h42c.5522847 0 1 .4477153 1 1zm-11.26-3h-18.65c.4045577-2.3641248 2.1781865-4.2601791 4.5100916-4.8214025 2.331905-.5612234 4.7740002.3202257 6.2099084 2.2414025.3101705.410497.8812037.5186472 1.32.25 1.1590063-.7121985 2.5775573-.8632091 3.860523-.4109686 1.2829656.4522406 2.2932623 1.4594107 2.749477 2.7409686zm-6.64-17.37c.2601307-1.0252102.9711599-1.8771373 1.9333187-2.3164259.9621587-.4392887 2.0716233-.4185365 3.0166813.0564259.6488965.3061903 1.4120918.2413187 2-.17 1.73-1.2 2.68-1.2 4.59-1.2s1.7-2 4.35-2c1.4922598-.0605012 2.9303554.564256 3.9045474 1.6962673.9741921 1.1320112 1.3776616 2.6471524 1.0954526 4.1137327-.2051322 1.0077046.3873632 2.0067298 1.37 2.31 1.530301.5862013 2.5613772 2.0311075 2.618077 3.6688615.0566999 1.637754-.8719806 3.150508-2.358077 3.8411385-1.5702903.7155708-3.4244638.3080602-4.55-1-.709508-.8043082-1.9271515-.9057785-2.76-.23-1.7619287 1.4335672-4.1145391 1.9126761-6.2967817 1.2823391s-3.9170468-2.2900885-4.6432183-4.4423391c-.0909379-.2460594-.2265464-.4732037-.4-.67-.1756544-.3711183-.5603099-.597153-.97-.57h-.1c-.9768055-.1602223-1.8396254-.7277017-2.3736452-1.5611541-.5340199-.8334524-.6889998-1.8544677-.4263548-2.8088459zm-11.1.37h9c-.0607751.6720666.0002015 1.349585.18 2h-11.18c-.7956495 0-1.5587112-.3160705-2.1213203-.8786797-.5626092-.5626091-.8786797-1.3256708-.8786797-2.1213203.8100596-.0765563 1.6067329-.2580768 2.37-.54.5312176.9535707 1.5384516 1.5433579 2.63 1.54zm8-19.4c0-1.12 1.71-2.05 3-1.34.6892787.40685528 1.5547432.36358205 2.2-.11 1.1838712-.90227952 2.6838478-1.28415089 4.1550481-1.05781239 1.4712002.2263385 2.7870316 1.04141111 3.6449519 2.25781239.4744788.65281424 1.2948149.95649638 2.08.77 1.8015636-.43200414 3.6640251.42962854 4.5011248 2.08236052.8370998 1.65273198.4297522 3.66401058-.9844618 4.86078028s-3.4651667 1.2658122-4.956663.1668592c-.651364-.4641765-1.5166426-.4956412-2.2-.08-1.5437277.9756978-3.4672025 1.1342497-5.1498613.4245026-1.6826587-.709747-2.9115266-2.1979601-3.2901387-3.9845026-.1568012-.74930354-.7275652-1.343364-1.47-1.53-.9441197-.44844189-1.5413886-1.40485288-1.53-2.45zm3.29 8.4h-3.29c-.0560572-.6977672-.249786-1.3775174-.57-2h2.34c.3883119.7488452.902466 1.4253636 1.52 2zm-28.84 1.89c.81457577-.4326285 1.22766234-1.3662042 1-2.26-.27533194-.8484807-.40054202-1.7384876-.37-2.63.6792912-2.63754498 3.21947298-4.35388402 5.92-4 1.45.29 1.52-1 5-1 4 0 5.39 2.3 5.88 3.67.281709.79240192 1.029034 1.32392183 1.87 1.33h.75c1.5532335-.00989841 2.9227111 1.0164908 3.349118 2.5100802.426407 1.4935894-.1947709 3.0882937-1.519118 3.8999198-.6553053.4512397-1.4474352.659881-2.24.59-.6904533-.054697-1.3600564.2517315-1.77.81-2.4218725 3.2718427-6.9353141 4.1641354-10.42 2.06-.9032438-.5345922-2.06287614-.3163588-2.71.51-.99637222 1.356318-2.73513978 1.9439016-4.35 1.47-2.71-.74-4.52-4.79-.39-6.96z"/><path id="Shape" d="m41 26.87c.2293087.1343739.5026768.1719353.7597298.1043886.257053-.0675468.4766422-.2346444.6102702-.4643886.5353928-.9300833 1.526827-1.503337 2.6-1.503337s2.0646072.5732537 2.6 1.503337c.1702629.3254784.5052613.5314125.8725499.5363839s.7077381-.1918202.886748-.5125711c.1790098-.3207508.1677615-.7138237-.0292979-1.0238128-.8931972-1.5468814-2.5437628-2.49978-4.33-2.49978s-3.4368028.9528986-4.33 2.49978c-.2730821.4753732-.1125074 1.0819888.36 1.36z"/><path id="Shape" d="m11.07 10.7c.4213193-.4300072.99799-.6723266 1.6-.6723266s1.1786807.2423194 1.6.6723266c.2549469.2726603.6405333.3806245 1 .28 1.0574222-.2820677 2.185777-.0112625 3 .72.7485896.8371258 1.023245 1.9959458.73 3.08-.0928891.3572656.0118768.7369483.2748334.9960254.2629565.2590771.6441544.3581885 1 .26s.6322775-.3787598.7251666-.7360254c.463326-1.7690931-.0037354-3.6524054-1.24-5-1.1790046-1.12012722-2.8163421-1.620219-4.42-1.35-1.7095487-1.36868864-4.184742-1.19002151-5.68.41-.33109025.40830838-.28952459 1.0032538.09512474 1.3615573.38464936.3583034.98104456.357623 1.36487526-.0015573z"/><path id="Shape" d="m35.53 9c.3016771.00550596.5897121-.12549472.7838263-.35649054.1941141-.23099582.2735521-.53728812.2161737-.83350946-.1133498-.67791139.242325-1.3475337.8674777-1.63318401.6251528-.28565032 1.3642055-.11624061 1.8025223.41318401.3341323.4418278.9631722.52913227 1.405.195s.5291323-.9631722.195-1.405c-.665157-.87378896-1.7018567-1.38473381-2.8-1.38-3.68 0-4.46 5-2.47 5z"/></g></g></svg>