<?xml version="1.0" encoding="UTF-8" standalone="no"?>
<!-- Generator: Adobe Illustrator 16.0.0, SVG Export Plug-In . SVG Version: 6.00 Build 0)  -->

<svg
   xmlns:dc="http://purl.org/dc/elements/1.1/"
   xmlns:cc="http://creativecommons.org/ns#"
   xmlns:rdf="http://www.w3.org/1999/02/22-rdf-syntax-ns#"
   xmlns:svg="http://www.w3.org/2000/svg"
   xmlns="http://www.w3.org/2000/svg"
   xmlns:sodipodi="http://sodipodi.sourceforge.net/DTD/sodipodi-0.dtd"
   xmlns:inkscape="http://www.inkscape.org/namespaces/inkscape"
   version="1.1"
   id="Capa_1"
   x="0px"
   y="0px"
   width="200"
   height="200"
   viewBox="0 0 200.00001 199.99999"
   xml:space="preserve"
   sodipodi:docname="book.svg"
   inkscape:version="0.92.4 (5da689c313, 2019-01-14)"
   inkscape:export-filename="C:\Users\User86\Downloads\books.png"
   inkscape:export-xdpi="129"
   inkscape:export-ydpi="129"><metadata
   id="metadata43"><rdf:RDF><cc:Work
       rdf:about=""><dc:format>image/svg+xml</dc:format><dc:type
         rdf:resource="http://purl.org/dc/dcmitype/StillImage" /><dc:title></dc:title></cc:Work></rdf:RDF></metadata><defs
   id="defs41">
		
	</defs><sodipodi:namedview
   pagecolor="#ffffff"
   bordercolor="#666666"
   borderopacity="1"
   objecttolerance="10"
   gridtolerance="10"
   guidetolerance="10"
   inkscape:pageopacity="0"
   inkscape:pageshadow="2"
   inkscape:window-width="1920"
   inkscape:window-height="1000"
   id="namedview39"
   showgrid="false"
   inkscape:zoom="2.4533719"
   inkscape:cx="-4.0047732"
   inkscape:cy="102.57619"
   inkscape:window-x="-11"
   inkscape:window-y="-11"
   inkscape:window-maximized="1"
   inkscape:current-layer="g867" />
<g
   id="g6"
   transform="translate(0,-135.07901)">
	<g
   id="g855"
   transform="translate(2.1297395,4.9693921)"
   inkscape:export-xdpi="135.39999"
   inkscape:export-ydpi="135.39999"><g
     id="g859"><g
       id="g867"
       inkscape:export-xdpi="129.35001"
       inkscape:export-ydpi="129.35001"><path
         style="stroke-width:1;fill:#f8f8ff;fill-opacity:0.78431374"
         d="m 183.60235,199.21312 c -0.80876,-6.07975 -0.92277,-16.55128 4.72424,-20.06746 0.10087,-0.0645 0.17608,-0.15757 0.26442,-0.23755 4.6168,-1.47667 7.81186,-3.54901 5.3038,-6.33759 L 125.79049,152.05004 15.51415,167.3819 c 0,0 -12.6280278,1.80495 -11.4999391,21.42414 0.612391,10.67805 3.9614413,15.92217 6.8902941,18.50305 l -9.0491813,2.72711 c -2.5116387,2.78859 0.6828219,4.86152 5.3002259,6.3358 0.08774,0.0824 0.1617524,0.17489 0.2644144,0.23935 5.643428,3.51916 5.534797,13.98949 4.723051,20.07043 -20.2739624,5.75684 -12.99629787,7.6328 -12.99629787,7.6328 l 4.44729567,1.07616 c -3.12820788,2.82679 -6.2349283,8.18731 -5.6529778,18.35383 1.1286856,19.61561 11.5011324,20.96932 11.5011324,20.96932 l 72.1642516,23.4559 108.923231,-26.38296 c 0,0 7.28005,-1.87895 -12.99928,-7.63638 -0.81533,-6.07139 -0.92874,-16.54053 4.72782,-20.06864 0.10386,-0.0627 0.17966,-0.15758 0.26382,-0.23636 4.6174,-1.47667 7.80948,-3.54722 5.30082,-6.3358 l -4.73439,-1.42951 c 3.15746,-1.90403 7.9002,-6.88015 8.64331,-19.80602 0.51271,-8.89101 -1.80673,-14.09813 -4.49146,-17.16366 l 9.35776,-2.26454 c 6e-4,0.004 7.28065,-1.87537 -12.9957,-7.6328 z m -91.107786,-0.25129 18.316816,-3.76447 61.90044,-12.72055 9.22227,-1.89686 c -2.94676,5.39334 -2.82321,12.77426 -2.33556,17.51821 0.10684,1.07318 0.22979,2.05324 0.34917,2.79814 l -10.09431,2.50984 -78.128791,19.43596 z m -78.681501,19.08977 9.221081,1.89686 59.446693,12.22036 5.193386,1.06363 v 0 0 l 15.574187,3.20103 0.76818,23.88086 -80.299624,-19.97791 -7.916318,-1.96729 c 0.11639,-0.7461 0.239346,-1.72497 0.350961,-2.80112 0.484661,-4.74037 0.610601,-12.12308 -2.338546,-17.51642 z m -3.582427,-30.18981 c -0.111615,-5.21846 0.818312,-8.99249 2.697863,-10.91083 1.196132,-1.22479 2.607735,-1.47965 3.575862,-1.47965 0.511519,0 0.87979,0.071 0.904858,0.071 l 47.515216,15.49064 23.705977,7.7289 -0.777724,24.04739 -66.504708,-18.6451 -3.50961,-0.98305 c -0.128924,-0.0364 -0.303808,-0.0615 -0.438701,-0.0674 -0.273964,-0.0197 -6.84911,-0.62492 -7.169033,-15.25188 z M 81.778318,297.75137 11.765791,278.12263 c -0.129521,-0.0376 -0.302614,-0.0627 -0.437507,-0.0692 -0.278739,-0.0185 -6.8568689,-0.62313 -7.1750018,-15.24651 -0.1134058,-5.22502 0.8212963,-8.99546 2.6972656,-10.9156 1.1991165,-1.22478 2.6113164,-1.47965 3.5776532,-1.47965 0.512713,0 0.879789,0.0686 0.906649,0.0686 0,0 0.003,0 0,0 l 71.216418,23.22312 z m 91.742262,-24.71469 c 0.11042,1.07676 0.23338,2.05504 0.35275,2.80113 l -88.224892,21.94759 0.771159,-23.88087 18.861763,-3.87788 2.7856,0.67387 10.44049,-3.39322 48.12642,-9.88958 9.22585,-1.89805 c -2.94974,5.39274 -2.82738,12.77665 -2.33914,17.51701 z m 4.85973,-32.45494 c -0.16056,0.004 -0.32111,0.0251 -0.47212,0.0728 l -6.65394,1.86284 -63.3568,17.76531 -0.77474,-24.04739 20.78668,-6.77987 50.33245,-16.4146 c 0.007,-0.003 2.64772,-0.58971 4.58637,1.38176 1.87656,1.91835 2.80768,5.69238 2.69786,10.91084 -0.32828,14.62217 -6.90641,15.22979 -7.14576,15.24829 z"
         id="path2"
         inkscape:connector-curvature="0" /></g></g></g>
</g>
<g
   id="g8"
   transform="translate(0,-135.07901)">
</g>
<g
   id="g10"
   transform="translate(0,-135.07901)">
</g>
<g
   id="g12"
   transform="translate(0,-135.07901)">
</g>
<g
   id="g14"
   transform="translate(0,-135.07901)">
</g>
<g
   id="g16"
   transform="translate(0,-135.07901)">
</g>
<g
   id="g18"
   transform="translate(0,-135.07901)">
</g>
<g
   id="g20"
   transform="translate(0,-135.07901)">
</g>
<g
   id="g22"
   transform="translate(0,-135.07901)">
</g>
<g
   id="g24"
   transform="translate(0,-135.07901)">
</g>
<g
   id="g26"
   transform="translate(0,-135.07901)">
</g>
<g
   id="g28"
   transform="translate(0,-135.07901)">
</g>
<g
   id="g30"
   transform="translate(0,-135.07901)">
</g>
<g
   id="g32"
   transform="translate(0,-135.07901)">
</g>
<g
   id="g34"
   transform="translate(0,-135.07901)">
</g>
<g
   id="g36"
   transform="translate(0,-135.07901)">
</g>
</svg>