<svg id="cat-work" enable-background="new 0 0 300 300" height="512" viewBox="0 0 300 300" width="512" xmlns="http://www.w3.org/2000/svg"><g><path d="m214 42c0-7.719-6.281-14-14-14s-14 6.281-14 14 6.281 14 14 14 14-6.281 14-14zm-20 0c0-3.309 2.691-6 6-6s6 2.691 6 6-2.691 6-6 6-6-2.691-6-6z"/><path d="m236 66.53c2.501 0 4.53-2.028 4.53-4.53s-2.028-4.53-4.53-4.53-4.53 2.028-4.53 4.53c0 2.501 2.028 4.53 4.53 4.53z"/><path d="m220.176 239.824c-1.562-1.562-4.094-1.562-5.656 0l-4.52 4.52-4.52-4.52c-1.562-1.562-4.094-1.562-5.656 0s-1.562 4.094 0 5.656l4.52 4.52-4.52 4.52c-1.562 1.562-1.562 4.094 0 5.656.781.781 1.805 1.172 2.828 1.172s2.047-.391 2.828-1.172l4.52-4.52 4.52 4.52c.781.781 1.805 1.172 2.828 1.172s2.047-.391 2.828-1.172c1.562-1.562 1.562-4.094 0-5.656l-4.52-4.52 4.52-4.52c1.562-1.562 1.562-4.093 0-5.656z"/><path d="m186 64h-156c-2.211 0-4 1.791-4 4s1.789 4 4 4h152v16h-148c-2.211 0-4 1.791-4 4v28c0 2.209 1.789 4 4 4h8v20h-8c-2.211 0-4 1.791-4 4v28c0 2.209 1.789 4 4 4h17.988c.424 5.315.682 10.65.775 16h-22.763c-2.211 0-4 1.791-4 4s1.789 4 4 4h22.78c-.09 6.692-.376 13.394-.983 20.094l-1.793 43.742c-.09 2.207 1.625 4.07 3.832 4.16.055.002.113.004.168.004 2.133 0 3.906-1.686 3.992-3.836l1.781-43.543c1.484-16.336 1.453-32.906-.105-49.248l-1.672-17.373c0-6.254 3.213-11.762 8.067-14.989.131 5.017.523 13.53 1.707 21.571.293 1.988 2 3.418 3.953 3.418.191 0 .391-.014.586-.043 2.188-.32 3.695-2.354 3.375-4.539-1.354-9.202-1.621-19.381-1.674-23.217.66-.074 1.306-.201 1.986-.201h8c.959 0 1.883.138 2.802.283-1.737 4.104-5.057 13.636-3.759 24.204.246 2.027 1.973 3.514 3.965 3.514.16 0 .324-.01.492-.029 2.191-.27 3.75-2.266 3.48-4.457-1.085-8.864 1.92-17.13 3.273-20.298 4.673 3.219 7.754 8.52 7.766 14.389l-2.941 29.619c-.715 7.234-1.078 14.562-1.078 21.783v58.992c0 2.209 1.789 4 4 4s4-1.791 4-4c0 0 .085-62.33.125-64h79.875c2.211 0 4-1.791 4-4v-132c0-2.209-1.789-4-4-4zm-64 108v-20h60v20zm4-48v20h-20v-20zm8 20v-20h20v20zm-24.727 8h4.727v20h-5.381l1.381-14c0-2.068-.268-4.07-.727-6zm52.727-8v-20h20v20zm-12-28v-20h32v20zm-8-20v20h-20v-20zm-28 0v20h-20v-20zm-28 0v20h-20v-20zm-48 20v-20h20v20zm0 36h12.799c-.493 2.042-.782 4.17-.78 6.379l1.298 13.621h-13.317zm16-7.68v-.32h-4v-20h20v8.728c-6.721 1.601-12.427 5.822-16 11.592zm30-12.32h-6v-8h20v12.126c-4.046-2.599-8.844-4.126-14-4.126zm23.039 56.014.791-8.014h26.17v16h-27.552c.163-2.667.33-5.336.591-7.986zm34.961 7.986v-16h40v16z"/><path d="m238 96c-19.852 0-36 16.15-36 36v40c0 19.85 16.148 36 36 36s36-16.15 36-36v-40c0-19.85-16.148-36-36-36zm28 76c0 15.439-12.562 28-28 28s-28-12.561-28-28v-40c0-15.439 12.562-28 28-28s28 12.561 28 28z"/><path d="m238 108c-2.211 0-4 1.791-4 4v16c0 2.209 1.789 4 4 4s4-1.791 4-4v-16c0-2.209-1.789-4-4-4z"/><path d="m162 84c2.211 0 4-1.791 4-4s-1.789-4-4-4h-16c-2.211 0-4 1.791-4 4s1.789 4 4 4z"/><path d="m130 84c2.211 0 4-1.791 4-4s-1.789-4-4-4h-16c-2.211 0-4 1.791-4 4s1.789 4 4 4z"/><path d="m98 84c2.211 0 4-1.791 4-4s-1.789-4-4-4h-16c-2.211 0-4 1.791-4 4s1.789 4 4 4z"/></g></svg>