<?xml version="1.0" encoding="UTF-8" standalone="no"?>
<svg
   xmlns:dc="http://purl.org/dc/elements/1.1/"
   xmlns:cc="http://creativecommons.org/ns#"
   xmlns:rdf="http://www.w3.org/1999/02/22-rdf-syntax-ns#"
   xmlns:svg="http://www.w3.org/2000/svg"
   xmlns="http://www.w3.org/2000/svg"
   xmlns:sodipodi="http://sodipodi.sourceforge.net/DTD/sodipodi-0.dtd"
   xmlns:inkscape="http://www.inkscape.org/namespaces/inkscape"
   id="cat-work"
   enable-background="new 0 0 300 300"
   height="200"
   viewBox="0 0 117.1875 117.1875"
   width="200"
   version="1.1"
   sodipodi:docname="cat.svg"
   inkscape:version="0.92.4 (5da689c313, 2019-01-14)">
  <metadata
     id="metadata27">
    <rdf:RDF>
      <cc:Work
         rdf:about="">
        <dc:format>image/svg+xml</dc:format>
        <dc:type
           rdf:resource="http://purl.org/dc/dcmitype/StillImage" />
        <dc:title />
      </cc:Work>
    </rdf:RDF>
  </metadata>
  <defs
     id="defs25" />
  <sodipodi:namedview
     pagecolor="#ffffff"
     bordercolor="#666666"
     borderopacity="1"
     objecttolerance="10"
     gridtolerance="10"
     guidetolerance="10"
     inkscape:pageopacity="0"
     inkscape:pageshadow="2"
     inkscape:window-width="1458"
     inkscape:window-height="896"
     id="namedview23"
     showgrid="false"
     inkscape:zoom="2.6074563"
     inkscape:cx="-21.360763"
     inkscape:cy="88.622888"
     inkscape:window-x="0"
     inkscape:window-y="0"
     inkscape:window-maximized="0"
     inkscape:current-layer="cat-work" />
  <g
     style="stroke-width:2.11626577;fill:#f8f8ff;fill-opacity:0.78431374"
     id="g20"
     transform="matrix(0.47253024,0,0,0.47253062,-12.285786,-12.285843)">
    <path
       style="stroke-width:2.11626577;fill:#f8f8ff;fill-opacity:0.78431374"
       inkscape:connector-curvature="0"
       d="m 214,42 c 0,-7.719 -6.281,-14 -14,-14 -7.719,0 -14,6.281 -14,14 0,7.719 6.281,14 14,14 7.719,0 14,-6.281 14,-14 z m -20,0 c 0,-3.309 2.691,-6 6,-6 3.309,0 6,2.691 6,6 0,3.309 -2.691,6 -6,6 -3.309,0 -6,-2.691 -6,-6 z"
       id="path2" />
    <path
       style="stroke-width:2.11626577;fill:#f8f8ff;fill-opacity:0.78431374"
       inkscape:connector-curvature="0"
       d="m 236,66.53 c 2.501,0 4.53,-2.028 4.53,-4.53 0,-2.502 -2.028,-4.53 -4.53,-4.53 -2.502,0 -4.53,2.028 -4.53,4.53 0,2.501 2.028,4.53 4.53,4.53 z"
       id="path4" />
    <path
       style="stroke-width:2.11626577;fill:#f8f8ff;fill-opacity:0.78431374"
       inkscape:connector-curvature="0"
       d="m 220.176,239.824 c -1.562,-1.562 -4.094,-1.562 -5.656,0 l -4.52,4.52 -4.52,-4.52 c -1.562,-1.562 -4.094,-1.562 -5.656,0 -1.562,1.562 -1.562,4.094 0,5.656 l 4.52,4.52 -4.52,4.52 c -1.562,1.562 -1.562,4.094 0,5.656 0.781,0.781 1.805,1.172 2.828,1.172 1.023,0 2.047,-0.391 2.828,-1.172 l 4.52,-4.52 4.52,4.52 c 0.781,0.781 1.805,1.172 2.828,1.172 1.023,0 2.047,-0.391 2.828,-1.172 1.562,-1.562 1.562,-4.094 0,-5.656 l -4.52,-4.52 4.52,-4.52 c 1.562,-1.562 1.562,-4.093 0,-5.656 z"
       id="path6" />
    <path
       style="stroke-width:2.11626577;fill:#f8f8ff;fill-opacity:0.78431374"
       inkscape:connector-curvature="0"
       d="M 186,64 H 30 c -2.211,0 -4,1.791 -4,4 0,2.209 1.789,4 4,4 H 182 V 88 H 34 c -2.211,0 -4,1.791 -4,4 v 28 c 0,2.209 1.789,4 4,4 h 8 v 20 h -8 c -2.211,0 -4,1.791 -4,4 v 28 c 0,2.209 1.789,4 4,4 h 17.988 c 0.424,5.315 0.682,10.65 0.775,16 H 30 c -2.211,0 -4,1.791 -4,4 0,2.209 1.789,4 4,4 h 22.78 c -0.09,6.692 -0.376,13.394 -0.983,20.094 l -1.793,43.742 c -0.09,2.207 1.625,4.07 3.832,4.16 0.055,0.002 0.113,0.004 0.168,0.004 2.133,0 3.906,-1.686 3.992,-3.836 l 1.781,-43.543 c 1.484,-16.336 1.453,-32.906 -0.105,-49.248 L 58,158 c 0,-6.254 3.213,-11.762 8.067,-14.989 0.131,5.017 0.523,13.53 1.707,21.571 0.293,1.988 2,3.418 3.953,3.418 0.191,0 0.391,-0.014 0.586,-0.043 2.188,-0.32 3.695,-2.354 3.375,-4.539 -1.354,-9.202 -1.621,-19.381 -1.674,-23.217 C 74.674,140.127 75.32,140 76,140 h 8 c 0.959,0 1.883,0.138 2.802,0.283 -1.737,4.104 -5.057,13.636 -3.759,24.204 0.246,2.027 1.973,3.514 3.965,3.514 0.16,0 0.324,-0.01 0.492,-0.029 2.191,-0.27 3.75,-2.266 3.48,-4.457 -1.085,-8.864 1.92,-17.13 3.273,-20.298 4.673,3.219 7.754,8.52 7.766,14.389 l -2.941,29.619 C 98.363,194.459 98,201.787 98,209.008 V 268 c 0,2.209 1.789,4 4,4 2.211,0 4,-1.791 4,-4 0,0 0.085,-62.33 0.125,-64 H 186 c 2.211,0 4,-1.791 4,-4 V 68 c 0,-2.209 -1.789,-4 -4,-4 z m -64,108 v -20 h 60 v 20 z m 4,-48 v 20 h -20 v -20 z m 8,20 v -20 h 20 v 20 z m -24.727,8 H 114 v 20 h -5.381 L 110,158 c 0,-2.068 -0.268,-4.07 -0.727,-6 z M 162,144 v -20 h 20 v 20 z M 150,116 V 96 h 32 v 20 z m -8,-20 v 20 H 122 V 96 Z m -28,0 v 20 H 94 V 96 Z m -28,0 v 20 H 66 V 96 Z M 38,116 V 96 h 20 v 20 z m 0,36 h 12.799 c -0.493,2.042 -0.782,4.17 -0.78,6.379 L 51.317,172 H 38 Z m 16,-7.68 V 144 h -4 v -20 h 20 v 8.728 c -6.721,1.601 -12.427,5.822 -16,11.592 z M 84,132 h -6 v -8 h 20 v 12.126 C 93.954,133.527 89.156,132 84,132 Z M 107.039,188.014 107.83,180 H 134 v 16 h -27.552 c 0.163,-2.667 0.33,-5.336 0.591,-7.986 z M 142,196 v -16 h 40 v 16 z"
       id="path8" />
    <path
       style="stroke-width:2.11626577;fill:#f8f8ff;fill-opacity:0.78431374"
       inkscape:connector-curvature="0"
       d="m 238,96 c -19.852,0 -36,16.15 -36,36 v 40 c 0,19.85 16.148,36 36,36 19.852,0 36,-16.15 36,-36 v -40 c 0,-19.85 -16.148,-36 -36,-36 z m 28,76 c 0,15.439 -12.562,28 -28,28 -15.438,0 -28,-12.561 -28,-28 v -40 c 0,-15.439 12.562,-28 28,-28 15.438,0 28,12.561 28,28 z"
       id="path10" />
    <path
       style="stroke-width:2.11626577;fill:#f8f8ff;fill-opacity:0.78431374"
       inkscape:connector-curvature="0"
       d="m 238,108 c -2.211,0 -4,1.791 -4,4 v 16 c 0,2.209 1.789,4 4,4 2.211,0 4,-1.791 4,-4 v -16 c 0,-2.209 -1.789,-4 -4,-4 z"
       id="path12" />
    <path
       style="stroke-width:2.11626577;fill:#f8f8ff;fill-opacity:0.78431374"
       inkscape:connector-curvature="0"
       d="m 162,84 c 2.211,0 4,-1.791 4,-4 0,-2.209 -1.789,-4 -4,-4 h -16 c -2.211,0 -4,1.791 -4,4 0,2.209 1.789,4 4,4 z"
       id="path14" />
    <path
       style="stroke-width:2.11626577;fill:#f8f8ff;fill-opacity:0.78431374"
       inkscape:connector-curvature="0"
       d="m 130,84 c 2.211,0 4,-1.791 4,-4 0,-2.209 -1.789,-4 -4,-4 h -16 c -2.211,0 -4,1.791 -4,4 0,2.209 1.789,4 4,4 z"
       id="path16" />
    <path
       style="stroke-width:2.11626577;fill:#f8f8ff;fill-opacity:0.78431374"
       inkscape:connector-curvature="0"
       d="m 98,84 c 2.211,0 4,-1.791 4,-4 0,-2.209 -1.789,-4 -4,-4 H 82 c -2.211,0 -4,1.791 -4,4 0,2.209 1.789,4 4,4 z"
       id="path18" />
  </g>
  <rect
     style="opacity:1;fill:none;fill-opacity:1;stroke:none;stroke-width:0.5859375;stroke-linejoin:miter;stroke-miterlimit:4;stroke-dasharray:none;stroke-dashoffset:0;stroke-opacity:1"
     id="rect837"
     width="117.18741"
     height="117.1875"
     x="4.7106554e-05"
     y="-1.3407135e-08" />
</svg>
