<?xml version="1.0" encoding="UTF-8" standalone="no"?>
<svg
   xmlns:dc="http://purl.org/dc/elements/1.1/"
   xmlns:cc="http://creativecommons.org/ns#"
   xmlns:rdf="http://www.w3.org/1999/02/22-rdf-syntax-ns#"
   xmlns:svg="http://www.w3.org/2000/svg"
   xmlns="http://www.w3.org/2000/svg"
   xmlns:sodipodi="http://sodipodi.sourceforge.net/DTD/sodipodi-0.dtd"
   xmlns:inkscape="http://www.inkscape.org/namespaces/inkscape"
   id="Layer_1"
   enable-background="new 0 0 512 512"
   height="200"
   viewBox="0 0 200 200"
   width="200"
   version="1.1"
   sodipodi:docname="face.svg"
   inkscape:version="0.92.4 (5da689c313, 2019-01-14)">
  <metadata
     id="metadata19">
    <rdf:RDF>
      <cc:Work
         rdf:about="">
        <dc:format>image/svg+xml</dc:format>
        <dc:type
           rdf:resource="http://purl.org/dc/dcmitype/StillImage" />
        <dc:title />
      </cc:Work>
    </rdf:RDF>
  </metadata>
  <defs
     id="defs17" />
  <sodipodi:namedview
     pagecolor="#ffffff"
     bordercolor="#666666"
     borderopacity="1"
     objecttolerance="10"
     gridtolerance="10"
     guidetolerance="10"
     inkscape:pageopacity="0"
     inkscape:pageshadow="2"
     inkscape:window-width="1844"
     inkscape:window-height="1080"
     id="namedview15"
     showgrid="false"
     inkscape:zoom="2.6074563"
     inkscape:cx="32.174162"
     inkscape:cy="139.93381"
     inkscape:window-x="0"
     inkscape:window-y="0"
     inkscape:window-maximized="0"
     inkscape:current-layer="Layer_1" />
  <g
     style="stroke-width:2.55999613;fill:#f8f8ff;fill-opacity:0.78431374;opacity:1"
     id="g12"
     transform="matrix(0.39062538,0,0,0.39062577,0,-7e-4)">
    <path
       style="stroke-width:2.55999613;fill:#f8f8ff;fill-opacity:0.78431374"
       inkscape:connector-curvature="0"
       d="m 451.364,306.904 c 3.357,13.352 15.46,23.269 29.839,23.269 16.981,0 30.796,-13.803 30.796,-30.769 0,-16.966 -13.815,-30.769 -30.796,-30.769 -14.379,0 -26.482,9.916 -29.839,23.269 h -50.86 c 0.372,-3.386 0.567,-6.73 0.567,-10.016 v -41.354 c 0,-48.312 -15.66,-88.99 -45.288,-117.637 -26.362,-25.49 -61.805,-39.528 -99.798,-39.528 -37.994,0 -73.436,14.038 -99.798,39.528 C 126.56,151.545 110.9,192.223 110.9,240.535 v 41.354 c 0,3.305 0.189,6.648 0.552,10.016 H 60.635 C 57.274,278.553 45.16,268.636 30.768,268.636 13.802,268.636 0,282.438 0,299.404 c 0,16.966 13.802,30.769 30.768,30.769 14.392,0 26.506,-9.916 29.867,-23.269 h 53.547 c 11.945,47.224 55.069,95.936 104.739,114.338 13.346,4.943 25.214,7.415 37.079,7.415 11.862,0 23.721,-2.471 37.044,-7.412 10.329,-3.812 20.646,-9.058 30.664,-15.593 3.469,-2.263 4.447,-6.91 2.184,-10.379 -2.264,-3.47 -6.91,-4.447 -10.379,-2.184 -9.079,5.922 -18.386,10.661 -27.673,14.088 -23.206,8.606 -40.473,8.606 -63.708,0 -43.383,-16.073 -82.347,-59.061 -94.402,-100.272 h 252.405 c -6.955,23.467 -22.726,48.401 -44.013,68.338 -3.023,2.832 -3.179,7.578 -0.347,10.601 1.477,1.577 3.474,2.373 5.476,2.373 1.837,0 3.679,-0.671 5.125,-2.026 24.771,-23.2 42.378,-51.928 49.361,-79.286 h 53.627 z m 29.84,-23.268 c 8.71,0 15.796,7.074 15.796,15.769 0,8.695 -7.086,15.769 -15.796,15.769 -8.694,0 -15.768,-7.074 -15.768,-15.769 0,-8.695 7.073,-15.769 15.768,-15.769 z M 30.768,315.173 C 22.074,315.173 15,308.099 15,299.404 c 0,-8.695 7.074,-15.769 15.768,-15.769 8.71,0 15.796,7.074 15.796,15.769 0,8.695 -7.086,15.769 -15.796,15.769 z m 95.791,-23.269 c -0.43,-3.381 -0.659,-6.726 -0.659,-10.016 V 259.74 c 33.202,-0.016 39.943,-21.041 44.865,-36.396 4.404,-13.736 6.816,-18.542 16.585,-18.542 h 52.574 c 4.142,0 7.5,-3.358 7.5,-7.5 0,-4.142 -3.358,-7.5 -7.5,-7.5 H 187.35 c -21.584,0 -26.732,16.06 -30.869,28.963 -4.65,14.505 -8.322,25.963 -30.581,25.976 v -4.206 c 0,-97.677 67.433,-142.165 130.086,-142.165 62.653,0 130.085,44.488 130.085,142.165 v 4.206 c -22.253,-0.013 -25.921,-11.467 -30.566,-25.966 -4.135,-12.908 -9.282,-28.973 -30.883,-28.973 h -49.896 c -4.142,0 -7.5,3.358 -7.5,7.5 0,4.142 3.358,7.5 7.5,7.5 h 49.896 c 9.783,0 12.196,4.808 16.598,18.549 4.918,15.351 11.654,36.372 44.851,36.389 v 22.149 c 0,3.256 -0.243,6.605 -0.693,10.016 H 126.559 Z"
       id="path2" />
    <path
       style="stroke-width:2.55999613;fill:#f8f8ff;fill-opacity:0.78431374"
       inkscape:connector-curvature="0"
       d="m 8.497,119.987 c 4.142,0 7.5,-3.358 7.5,-7.5 V 24.51 c 0,-4.69 3.816,-8.506 8.506,-8.506 h 87.974 c 4.142,0 7.5,-3.358 7.5,-7.5 0,-4.142 -3.358,-7.5 -7.5,-7.5 H 24.502 C 11.541,1.004 0.996,11.549 0.996,24.51 v 87.977 c 0.001,4.142 3.358,7.5 7.501,7.5 z"
       id="path4" />
    <path
       style="stroke-width:2.55999613;fill:#f8f8ff;fill-opacity:0.78431374"
       inkscape:connector-curvature="0"
       d="m 399.495,16.004 h 88.002 c 4.674,0 8.477,3.816 8.477,8.506 v 87.977 c 0,4.142 3.358,7.5 7.5,7.5 4.142,0 7.5,-3.358 7.5,-7.5 V 24.51 c 0,-12.961 -10.532,-23.506 -23.477,-23.506 h -88.002 c -4.142,0 -7.5,3.358 -7.5,7.5 0,4.142 3.358,7.5 7.5,7.5 z"
       id="path6" />
    <path
       style="stroke-width:2.55999613;fill:#f8f8ff;fill-opacity:0.78431374"
       inkscape:connector-curvature="0"
       d="M 112.477,495.996 H 24.502 c -4.69,0 -8.506,-3.803 -8.506,-8.478 v -88.005 c 0,-4.142 -3.358,-7.5 -7.5,-7.5 -4.142,0 -7.5,3.358 -7.5,7.5 v 88.005 c 0,12.945 10.545,23.478 23.506,23.478 h 87.974 c 4.142,0 7.5,-3.358 7.5,-7.5 0,-4.142 -3.357,-7.5 -7.499,-7.5 z"
       id="path8" />
    <path
       style="stroke-width:2.55999613;fill:#f8f8ff;fill-opacity:0.78431374"
       inkscape:connector-curvature="0"
       d="m 503.475,392.013 c -4.142,0 -7.5,3.358 -7.5,7.5 v 88.005 c 0,4.674 -3.803,8.478 -8.477,8.478 h -88.002 c -4.142,0 -7.5,3.358 -7.5,7.5 0,4.142 3.358,7.5 7.5,7.5 h 88.002 c 12.945,0 23.477,-10.532 23.477,-23.478 v -88.005 c 0,-4.142 -3.358,-7.5 -7.5,-7.5 z"
       id="path10" />
  </g>
  <rect
     style="opacity:1;fill:none;fill-opacity:1;stroke:none;stroke-width:0.99999994;stroke-linejoin:miter;stroke-miterlimit:4;stroke-dasharray:none;stroke-dashoffset:0;stroke-opacity:1"
     id="rect826"
     width="199.9998"
     height="200"
     x="0.00019669552"
     y="-0.0005033043" />
</svg>
