<?xml version="1.0" encoding="iso-8859-1"?>
<!-- Generator: Adobe Illustrator 19.0.0, SVG Export Plug-In . SVG Version: 6.00 Build 0)  -->
<svg version="1.1" id="Capa_1" xmlns="http://www.w3.org/2000/svg" xmlns:xlink="http://www.w3.org/1999/xlink" x="0px" y="0px"
	 viewBox="0 0 512 512" style="enable-background:new 0 0 512 512;" xml:space="preserve">
<g>
	<g>
		<circle cx="76" cy="376" r="15"/>
	</g>
</g>
<g>
	<g>
		<circle cx="196" cy="376" r="15"/>
	</g>
</g>
<g>
	<g>
		<circle cx="136" cy="346" r="15"/>
	</g>
</g>
<g>
	<g>
		<path d="M497,301h-60v-30h60c5.198,0,10.026-2.692,12.76-7.114c2.733-4.422,2.981-9.944,0.656-14.594l-75-150
			c-2.534-5.069-7.709-8.277-13.376-8.292c-0.014,0-0.026,0-0.04,0c-5.651,0-10.825,3.177-13.381,8.221l-76,150
			c-2.355,4.65-2.129,10.189,0.601,14.631c2.729,4.441,7.567,7.148,12.78,7.148h61v30h-61c-16.121,0-32.103-5.327-45-15l-72-54
			c-9.923-7.442-21.154-13.033-33-16.572V181h60c5.191,0,10.014-2.685,12.749-7.097c2.735-4.412,2.994-9.926,0.686-14.576l-75-151
			C191.9,3.226,186.696,0,181,0s-10.9,3.226-13.435,8.327L135.93,72.019L104.446,8.351C101.925,3.254,96.739,0.02,91.053,0
			C91.035,0,91.018,0,91,0c-5.666,0-10.851,3.193-13.398,8.256l-76,151c-2.341,4.65-2.103,10.181,0.628,14.613
			C4.961,178.301,9.794,181,15,181h61v30H15c-8.284,0-15,6.716-15,15v271c0,8.284,6.716,15,15,15h482c8.284,0,15-6.716,15-15V316
			C512,307.716,505.284,301,497,301z M370.415,241l51.496-101.636L472.73,241H370.415z M181,48.72L231.802,151H130.198
			C135.309,140.711,173.152,64.521,181,48.72z M166,181v30h-60v-30H166z M39.343,151L90.882,48.6l28.278,57.185L96.701,151H39.343z
			 M482,482H30v-31h452V482z M482,421H30V301h96c22.57,0,44.944,7.458,63,21l48,36c28.375,21.28,63.533,33,99,33h146V421z M482,361
			H336c-29.019,0-57.784-9.589-81-27l-48-36c-23.215-17.411-51.981-27-81-27H30v-30h136c16.121,0,32.103,5.327,45,15l72,54
			c18.057,13.542,40.431,21,63,21h136V361z"/>
	</g>
</g>
<g>
</g>
<g>
</g>
<g>
</g>
<g>
</g>
<g>
</g>
<g>
</g>
<g>
</g>
<g>
</g>
<g>
</g>
<g>
</g>
<g>
</g>
<g>
</g>
<g>
</g>
<g>
</g>
<g>
</g>
</svg>
