<?xml version="1.0" encoding="UTF-8" standalone="no"?>
<svg
   xmlns:dc="http://purl.org/dc/elements/1.1/"
   xmlns:cc="http://creativecommons.org/ns#"
   xmlns:rdf="http://www.w3.org/1999/02/22-rdf-syntax-ns#"
   xmlns:svg="http://www.w3.org/2000/svg"
   xmlns="http://www.w3.org/2000/svg"
   xmlns:sodipodi="http://sodipodi.sourceforge.net/DTD/sodipodi-0.dtd"
   xmlns:inkscape="http://www.inkscape.org/namespaces/inkscape"
   height="680"
   viewBox="-26 0 509.99998 510.07434"
   width="680"
   version="1.1"
   id="svg10"
   sodipodi:docname="happy.svg"
   inkscape:version="0.92.4 (5da689c313, 2019-01-14)"
   inkscape:export-filename="C:\Users\User86\git\faceapp\public\happy192.png"
   inkscape:export-xdpi="27.110001"
   inkscape:export-ydpi="27.110001">
  <metadata
     id="metadata16">
    <rdf:RDF>
      <cc:Work
         rdf:about="">
        <dc:format>image/svg+xml</dc:format>
        <dc:type
           rdf:resource="http://purl.org/dc/dcmitype/StillImage" />
        <dc:title></dc:title>
      </cc:Work>
    </rdf:RDF>
  </metadata>
  <defs
     id="defs14" />
  <sodipodi:namedview
     pagecolor="#ffffff"
     bordercolor="#666666"
     borderopacity="1"
     objecttolerance="10"
     gridtolerance="10"
     guidetolerance="10"
     inkscape:pageopacity="0"
     inkscape:pageshadow="2"
     inkscape:window-width="2880"
     inkscape:window-height="1541"
     id="namedview12"
     showgrid="false"
     units="px"
     inkscape:zoom="1.4142136"
     inkscape:cx="179.17249"
     inkscape:cy="282.15969"
     inkscape:window-x="-11"
     inkscape:window-y="-11"
     inkscape:window-maximized="1"
     inkscape:current-layer="layer1" />
  <g
     inkscape:groupmode="layer"
     id="layer1"
     inkscape:label="Layer 1"
     style="display:inline"
     transform="translate(0,-2.0003221)">
    <rect
       style="opacity:1;fill:#be00aa;fill-opacity:1;stroke:none;stroke-width:1.50021863;stroke-linejoin:miter;stroke-miterlimit:4;stroke-dasharray:none;stroke-dashoffset:0;stroke-opacity:1"
       id="rect929"
       width="510.07434"
       height="510.07434"
       x="-26.03718"
       y="2.0003214"
       rx="37.505466"
       ry="37.505466"
       inkscape:export-filename="C:\Users\User86\git\faceapp\public\happy32.png"
       inkscape:export-xdpi="4.5176473"
       inkscape:export-ydpi="4.5176473" />
    <g
       id="g925"
       transform="translate(-121.55193,-34.387668)"
       inkscape:export-filename="C:\Users\User86\git\faceapp\public\happy32.png"
       inkscape:export-xdpi="4.5176473"
       inkscape:export-ydpi="4.5176473">
      <path
         id="path2-6"
         d="m 299.34825,363.87641 c -4.71094,0 -8.53126,3.82032 -8.53126,8.53517 v 8.53125 c -0.0625,14.23436 8.75391,26.99609 22.08204,31.98046 13.33203,4.98438 28.35937,1.13673 37.65234,-9.64063 9.29296,10.77736 24.31641,14.62501 37.64843,9.64063 13.33203,-4.98437 22.14453,-17.7461 22.08204,-31.98046 v -8.53125 c 0,-4.71484 -3.82031,-8.53517 -8.53125,-8.53517 -4.71484,0 -8.53515,3.82033 -8.53515,8.53517 v 8.53125 c 0,9.42578 -7.64064,17.06641 -17.06641,17.06641 -9.42578,0 -17.0664,-7.64063 -17.0664,-17.06641 V 353.7397 c 3.00389,-1.10547 5.71875,-2.88281 7.9375,-5.1914 l 12.77343,-13.65625 c 4.83594,-4.95313 6.21093,-12.33203 3.47657,-18.69532 -3.65625,-7.62109 -11.48048,-12.35547 -19.92969,-12.05468 h -25.58203 c -8.44923,-0.30079 -16.26954,4.43359 -19.92579,12.05468 -2.73046,6.35938 -1.36328,13.73829 3.46876,18.69532 l 12.78905,13.65625 c 2.21484,2.30859 4.92578,4.08593 7.92579,5.1914 v 27.20313 c 0,9.42578 -7.64063,17.06641 -17.06642,17.06641 -9.42577,0 -17.06639,-7.64063 -17.06639,-17.06641 v -8.53125 c 0,-4.71484 -3.82033,-8.53517 -8.53516,-8.53517 z m 34.12499,-40.85155 c 0.10157,-0.39844 1.37891,-1.81641 4.28517,-1.81641 h 25.58203 c 2.91014,0 4.18359,1.41797 3.99218,2.01952 l -12.77344,13.65235 c -2.39062,1.72657 -5.61718,1.72657 -8.0078,0 z m 0,0"
         inkscape:connector-curvature="0"
         style="stroke-width:0.99999994" />
      <path
         id="path4-1"
         d="m 242.72715,275.02485 c 15.18751,-5.93749 27.27343,-6.64062 35.94923,-2.05468 6.05078,3.48438 10.48827,9.21484 12.33984,15.94921 1.07422,4.52345 5.57031,7.35548 10.11328,6.36719 4.54297,-0.98437 7.46094,-5.42968 6.56249,-9.98827 -2.91405,-11.53906 -10.41016,-21.39064 -20.7578,-27.26564 -13.27736,-7.14452 -30.23438,-6.77733 -50.42579,1.09375 -4.39063,1.71876 -6.55859,6.66797 -4.84375,11.0586 1.71875,4.39063 6.66797,6.5586 11.0625,4.83984 z m 0,0"
         inkscape:connector-curvature="0"
         style="stroke-width:0.99999994" />
      <path
         id="path6-6"
         d="m 391.43418,295.4233 c 2.21094,0.46875 4.52345,0.043 6.42188,-1.1875 1.89843,-1.23438 3.23046,-3.17188 3.70313,-5.38282 1.82421,-6.66016 6.1953,-12.33203 12.16406,-15.79687 8.67578,-4.67579 20.82813,-4.00391 36.11718,1.96093 4.39063,1.71875 9.34376,-0.44921 11.0586,-4.83984 1.71874,-4.39063 -0.44922,-9.34376 -4.83984,-11.0586 -20.1836,-7.875 -37.14453,-8.24218 -50.42578,-1.09765 -10.34766,5.8789 -17.84766,15.73047 -20.75781,27.26952 -0.47657,2.21094 -0.0508,4.52345 1.17578,6.42579 1.23047,1.89843 3.16796,3.23438 5.3828,3.70704 z m 0,0"
         inkscape:connector-curvature="0"
         style="stroke-width:0.99999994" />
      <path
         sodipodi:nodetypes="ccccccscccccsscccccccccccccsccccccscccccssccsscsccccccccccccsccccscccccccccccccscccccccccccssscsssssssssccssssscsssssssssccssss"
         inkscape:connector-curvature="0"
         id="path8-9"
         d="m 215.88679,127.10326 c -11.45108,-5.39813 -23.38269,-9.71543 -36.00378,-10.69199 -7.09766,-0.10938 -13.78483,3.33239 -17.82389,9.16833 -18.88281,26.03515 3.00077,102.47999 8.59842,120.6753 -4.9375,8.26172 -9.24357,16.88706 -12.87639,25.80112 -9.64062,-1.35937 -19.36312,-2.04277 -29.0975,-2.04668 -4.71484,0 -8.53396,3.82057 -8.53396,8.53542 0,4.71094 3.81912,8.53103 8.53396,8.53103 7.76563,0.008 15.52731,0.49533 23.23434,1.45627 -4.01172,13.37109 -6.08976,27.25112 -6.16789,41.21205 v 0.0733 c -7.6914,2.26953 -15.02661,5.60154 -21.80005,9.8906 -2.56641,1.67969 -4.03474,4.60561 -3.84724,7.66811 0.1875,3.0625 2.00314,5.7862 4.75704,7.13776 2.75391,1.35156 6.0198,1.12051 8.55887,-0.60214 4.28906,-2.74218 8.89408,-4.96044 13.7144,-6.60887 1.49609,10.36328 4.46564,20.46042 8.82111,29.98386 -15.80078,10.35938 -25.87995,27.4799 -27.27058,46.32364 0,26.31641 26.15643,42.66394 68.26581,42.66394 18.99219,1.16797 37.8594,-3.80382 53.80863,-14.17883 32.35937,9.74219 66.00477,14.52258 99.79384,14.17883 33.78906,0.34375 67.43251,-4.43664 99.78798,-14.17883 15.94922,10.37501 34.81644,15.3468 53.80862,14.17883 42.10938,0 68.26581,-16.34753 68.26581,-42.66394 -1.38672,-18.84374 -11.46833,-35.96426 -27.26911,-46.32364 4.35547,-9.52344 7.32355,-19.62058 8.81964,-29.98386 4.82032,1.64843 9.42583,3.86669 13.7188,6.60887 2.53516,1.72265 5.80056,1.9537 8.55447,0.60214 2.75391,-1.35156 4.5715,-4.07526 4.7629,-7.13776 0.18751,-3.0625 -1.28132,-5.98842 -3.85163,-7.66811 -6.77344,-4.28906 -14.11011,-7.62107 -21.80152,-9.8906 v -0.0733 c -0.0742,-13.96093 -2.15226,-27.84096 -6.16789,-41.21205 7.70703,-0.96094 15.46872,-1.44456 23.23434,-1.45627 4.71485,0 8.53542,-3.82009 8.53542,-8.53103 0,-4.71485 -3.82057,-8.53542 -8.53542,-8.53542 -9.73828,0.004 -19.46469,0.69073 -29.10922,2.05401 -3.58594,-8.79297 -7.83144,-17.30352 -12.69472,-25.45977 5.61328,-18.22266 27.60526,-94.89117 8.64823,-121.03571 -4.02734,-5.83203 -10.69986,-9.26598 -17.78579,-9.1566 -12.70704,0.96875 -24.74381,5.25357 -36.24113,10.75059 -4.73601,2.26434 -9.20688,4.73819 -15.20436,8.06221 -11.49459,6.37072 -24.05779,14.48791 -38.03436,24.28479 -51.74999,-23.21094 -110.94119,-23.23732 -162.71072,-0.0733 -14.04688,-9.80078 -26.68467,-17.87113 -38.17207,-24.28185 -4.4078,-2.45984 -9.27546,-5.24658 -15.22341,-8.05049 z m -36.00378,6.37446 c 12.17578,1.35157 23.89953,5.3943 34.3175,11.8318 0.0742,0.0469 0.10892,0.12161 0.18313,0.16848 0.27735,0.13673 0.56214,0.25787 0.8512,0.36334 16.71094,9.0625 32.81269,19.20364 48.20331,30.35599 2.51172,1.78125 5.78494,2.06945 8.5662,0.75303 49.72656,-23.75 107.53122,-23.72215 157.23434,0.0747 2.79297,1.33203 6.09061,1.04628 8.61014,-0.7545 38.21875,-27.19531 68.70213,-42.79286 83.62401,-42.79286 1.60937,-0.0898 3.13778,0.72247 3.96591,2.10529 8.96093,12.35937 3.46012,61.48031 -12.25081,109.49984 -0.78907,2.40626 -0.46911,5.03572 0.87463,7.18025 4.58594,7.35547 8.61749,15.03851 12.07061,22.98382 -18.8125,3.92969 -36.7025,11.42265 -52.70251,22.07109 -3.67577,2.85156 -4.38645,8.12135 -1.6013,11.84791 2.78516,3.72657 8.04225,4.53543 11.81569,1.81668 14.82421,-9.51172 31.30542,-16.14934 48.58276,-19.56731 3.44922,11.04688 5.42469,22.5035 5.87781,34.06991 -14.01562,-2.64454 -28.23032,-4.07338 -42.48812,-4.2765 -4.71485,0 -8.53543,3.82057 -8.53543,8.53542 0,4.71094 3.82058,8.53103 8.53543,8.53103 14.05468,0.25 28.06322,1.74576 41.85229,4.46842 -1.12891,9.06641 -3.57821,17.91789 -7.26962,26.27727 -8.26953,-3.38281 -17.11805,-5.12819 -26.05165,-5.14382 -38.44922,0 -68.26581,32.10832 -68.26581,59.73332 -0.0313,4.88672 0.97309,9.72717 2.94184,14.20373 -28.76172,7.83203 -58.46404,11.66719 -88.27263,11.39375 -29.8086,0.27344 -59.51287,-3.56172 -88.27849,-11.39375 1.96875,-4.47656 2.97308,-9.31701 2.94183,-14.20373 0,-27.625 -29.81659,-59.73332 -68.26581,-59.73332 -8.93359,0.0156 -17.78065,1.76101 -26.05018,5.14382 -3.69141,-8.35938 -6.14071,-17.21086 -7.26962,-26.27727 13.79297,-2.72266 27.79663,-4.21842 41.85523,-4.46842 4.71093,0 8.53103,-3.82009 8.53103,-8.53103 0,-4.71485 -3.8201,-8.53542 -8.53103,-8.53542 -14.26173,0.20312 -28.48081,1.63196 -42.49253,4.2765 0.44922,-11.5625 2.42566,-23.01864 5.87488,-34.06551 17.27734,3.41406 33.75855,10.05119 48.58277,19.56291 3.77344,2.71484 9.03053,1.90989 11.81568,-1.81668 2.78907,-3.72265 2.07887,-8.99635 -1.59691,-11.84791 -16.0039,-10.65235 -33.89537,-18.14434 -52.71569,-22.07402 3.49609,-8.06641 7.59065,-15.86326 12.25081,-23.31639 1.33984,-2.14453 1.6593,-4.77351 0.87024,-7.17585 -15.64063,-47.89453 -21.11652,-96.85136 -12.20246,-109.14823 0.83984,-1.40234 2.38242,-2.21955 4.01133,-2.1258 z m 17.06645,247.46575 c 27.57422,0 51.19936,23.45984 51.19936,42.66686 0,12.42188 -11.47699,19.55463 -26.36371,22.99994 0.48828,-1.9414 0.74669,-3.93348 0.76623,-5.93348 v -17.06646 c 0,-4.71484 -3.82058,-8.53541 -8.53542,-8.53541 -4.71095,0 -8.53103,3.82057 -8.53103,8.53541 v 17.06646 c 0,4.71094 -3.82059,8.53103 -8.53543,8.53103 -4.71094,0 -8.53542,-3.82009 -8.53542,-8.53103 v -17.06646 c 0,-4.71484 -3.8201,-8.53541 -8.53103,-8.53541 -4.71484,0 -8.53543,3.82057 -8.53543,8.53541 v 17.06646 c 0.0195,2 0.27795,3.99208 0.76623,5.93348 -14.88672,-3.44531 -26.36371,-10.57806 -26.36371,-22.99994 0,-19.20702 23.62514,-42.66686 51.19936,-42.66686 z m 307.19907,0 c 27.57422,0 51.19936,23.46765 51.19936,42.66686 0,12.42188 -11.4765,19.55463 -26.35931,22.99994 0.48438,-1.9414 0.7423,-3.93348 0.76183,-5.93348 v -17.06646 c 0,-4.71484 -3.82058,-8.53541 -8.53542,-8.53541 -4.71094,0 -8.53103,3.82057 -8.53103,8.53541 v 17.06646 c 0,4.71094 -3.82058,8.53103 -8.53543,8.53103 -4.71093,0 -8.53102,-3.82009 -8.53102,-8.53103 v -17.06646 c 0,-4.71484 -3.82059,-8.53541 -8.53543,-8.53541 -4.71093,0 -8.53103,3.82057 -8.53103,8.53541 v 17.06646 c 0.0195,2 0.27355,3.99208 0.76183,5.93348 -14.88672,-3.44531 -26.36371,-10.57806 -26.36371,-22.99994 0,-19.20702 23.62515,-42.66686 51.19936,-42.66686 z"
         style="stroke-width:0.99999994" />
    </g>
  </g>
  <g
     inkscape:groupmode="layer"
     id="layer2"
     inkscape:label="Layer 2"
     style="display:none"
     transform="translate(0,-2.0003221)">
    <path
       style="stroke-width:0.99999994"
       inkscape:connector-curvature="0"
       d="m 39.856181,222.69179 c 7.765625,0.008 15.527343,0.49609 23.234375,1.45703 -4.011719,13.3711 -6.089844,27.25 -6.167969,41.21094 v 0.0742 c -7.691407,2.26953 -15.027344,5.60157 -21.800781,9.89062 -2.566406,1.67969 -4.035156,4.60547 -3.847656,7.66797 0.1875,3.0625 2.003906,5.78516 4.757812,7.13672 2.753906,1.35157 6.019531,1.12109 8.558594,-0.60155 4.289062,-2.74219 8.89453,-4.96095 13.714843,-6.60939 1.496093,10.36329 4.464844,20.46094 8.820312,29.98438 -15.80078,10.35937 -25.878905,27.48048 -27.26953,46.32423 0,26.31639 26.15625,42.66406 68.265629,42.66406 18.99218,1.16796 37.85937,-3.80469 53.80859,-14.1797 32.35937,9.74219 66.0039,14.52344 99.79297,14.1797 33.78906,0.34374 67.43359,-4.43751 99.78906,-14.1797 15.94922,10.37501 34.8164,15.34766 53.80859,14.1797 42.10938,0 68.26563,-16.34767 68.26563,-42.66406 -1.38672,-18.84375 -11.46875,-35.96486 -27.26953,-46.32423 4.35546,-9.52344 7.32421,-19.62109 8.82031,-29.98438 4.82031,1.64844 9.42578,3.8672 13.71875,6.60939 2.53515,1.72264 5.80078,1.95312 8.55469,0.60155 2.7539,-1.35156 4.57031,-4.07422 4.76171,-7.13672 0.1875,-3.0625 -1.28125,-5.98828 -3.85156,-7.66797 -6.77344,-4.28905 -14.10937,-7.62109 -21.80078,-9.89062 v -0.0742 c -0.0742,-13.96094 -2.15234,-27.83984 -6.16797,-41.21094 7.70703,-0.96094 15.46875,-1.44531 23.23438,-1.45703 4.71484,0 8.53515,-3.82031 8.53515,-8.53125 0,-4.71484 -3.82031,-8.53516 -8.53515,-8.53516 -9.73828,0.004 -19.46485,0.69141 -29.10938,2.05469 -3.58594,-8.79298 -7.83203,-17.30469 -12.69531,-25.46094 5.61328,-18.22265 27.60547,-94.890618 8.64844,-121.035148 -4.02735,-5.83203 -10.69922,-9.26563 -17.78516,-9.15625 -12.70703,0.96875 -25.0625,4.63281 -36.24219,10.75 -21.83203,-30.85938 -60.32812,-52.53906 -104.20703,-59.5039096 -0.14453,-11.625 -1.60547,-23.1953114 -4.35156,-34.4960914 -1.91406,-9.468751 1.59766,-19.218751 9.10937,-25.296876 10.64454,-7.171875 28.02735,3.925781 35,9.023437 7.38282,5.480469 17.13282,6.582031 25.55079,2.886719 8.41796,-3.691406 14.21093,-11.617188 15.17187,-20.761719 0.96484,-9.140625 -3.05078,-18.097656 -10.51172,-23.464844 -46.83594,-34.277338 -81.14453,-18.617188 -93.77734,-10.257812 -25.32813,18.0625 -37.26563,49.621093 -30.23047,79.92578 1.69531,6.921873 2.67969,13.9960964 2.92969,21.1171864 -47.95703,5.08594 -90.6211,27.6406296 -114.02734,60.7695296 -11.10938,-6.07031 -23.38282,-9.71484 -36.00391,-10.6914 -7.097657,-0.10938 -13.785157,3.33203 -17.824219,9.16797 -18.882813,26.03515 3,102.480468 8.597656,120.675778 -4.9375,8.26172 -9.242187,16.88672 -12.875,25.80078 -9.640625,-1.35938 -19.363281,-2.04297 -29.097656,-2.04688 -4.714844,0 -8.535157,3.82032 -8.535157,8.53516 0,4.71094 3.820313,8.53125 8.535157,8.53125 z m 17.066406,136.53516 c 0,-19.20703 23.625,-42.66797 51.199223,-42.66797 27.57421,0 51.19921,23.46094 51.19921,42.66797 0,12.42187 -11.47656,19.55468 -26.36328,23 0.48828,-1.94141 0.7461,-3.9336 0.76563,-5.9336 v -17.0664 c 0,-4.71485 -3.82032,-8.53516 -8.53516,-8.53516 -4.71094,0 -8.53125,3.82031 -8.53125,8.53516 v 17.0664 c 0,4.71094 -3.82031,8.53125 -8.53515,8.53125 -4.71094,0 -8.53516,-3.82031 -8.53516,-8.53125 v -17.0664 c 0,-4.71485 -3.820313,-8.53516 -8.53125,-8.53516 -4.714844,0 -8.535157,3.82031 -8.535157,8.53516 v 17.0664 c 0.01953,2 0.277344,3.99219 0.765625,5.9336 -14.886718,-3.44532 -26.363281,-10.57813 -26.363281,-23 z m 409.597653,0 c 0,12.42187 -11.47656,19.55468 -26.35937,23 0.48437,-1.94141 0.74218,-3.9336 0.76171,-5.9336 v -17.0664 c 0,-4.71485 -3.82031,-8.53516 -8.53515,-8.53516 -4.71094,0 -8.53125,3.82031 -8.53125,8.53516 v 17.0664 c 0,4.71094 -3.82031,8.53125 -8.53516,8.53125 -4.71094,0 -8.53125,-3.82031 -8.53125,-8.53125 v -17.0664 c 0,-4.71485 -3.82031,-8.53516 -8.53515,-8.53516 -4.71094,0 -8.53125,3.82031 -8.53125,8.53516 v 17.0664 c 0.0195,2 0.27343,3.99219 0.76171,5.9336 -14.88671,-3.44532 -26.36328,-10.57813 -26.36328,-23 0,-19.20703 23.625,-42.66797 51.19922,-42.66797 27.57422,0 51.19922,23.46875 51.19922,42.66797 z M 254.73118,-23.230087 c -5.48047,-23.343746 3.65234,-47.691402 23.13281,-61.667964 11.92578,-7.886719 37.40625,-17.109379 74.22656,9.839843 2.46094,1.800781 3.77735,4.773438 3.44922,7.808594 -0.32422,3.031249 -2.24609,5.65625 -5.03515,6.890625 -2.78516,1.234375 -6.02344,0.882812 -8.48438,-0.914062 -21.19141,-15.496094 -40.57422,-18.835938 -54.56641,-9.425782 -13.46093,10.074219 -19.79296,27.089844 -16.1914,43.511717 2.29297,9.34766 3.59375,18.9101584 3.89062,28.5273484 -4.44922,-0.30469 -8.91797,-0.51562999 -13.42968,-0.51562999 -1.21094,0 -2.40625,0.082 -3.61329,0.10547 -0.30859,-8.14844001 -1.4414,-16.24218441 -3.3789,-24.16015941 z m 6.99219,41.121099 c 49.74609,0 95.49609,20.54297 119.47656,52.94922 -11.4375,6.47265 -24.0586,14.48828 -38.03516,24.28515 -51.75,-23.21093 -110.9414,-23.23828 -162.71094,-0.0742 -14.04687,-9.8008 -26.71484,-17.81641 -38.17187,-24.28125 23.91797,-32.3633 69.64844,-52.87892 119.44141,-52.87892 z M 99.246806,180.36757 C 83.606181,132.47304 78.129618,83.516012 87.043681,71.219132 c 0.839843,-1.40234 2.382812,-2.21875 4.011719,-2.125 12.17578,1.35157 23.89844,5.39454 34.31641,11.83204 0.0742,0.0469 0.10937,0.12109 0.18359,0.16796 0.27734,0.13672 0.5625,0.25782 0.85156,0.36329 16.71094,9.0625 32.8125,19.203118 48.20312,30.355458 2.51172,1.78125 5.78516,2.07032 8.56641,0.75391 49.72656,-23.749998 107.53125,-23.722658 157.23438,0.0742 2.79296,1.33203 6.08984,1.04688 8.60937,-0.7539 38.21875,-27.195308 68.70313,-42.792968 83.625,-42.792968 1.60938,-0.0898 3.13672,0.72265 3.96484,2.10546 8.96094,12.35938 3.46094,61.480468 -12.25,109.499998 -0.78906,2.40625 -0.46875,5.03516 0.875,7.1797 4.58594,7.35546 8.61719,15.03905 12.07032,22.98437 -18.8125,3.92968 -36.70313,11.42187 -52.70313,22.07031 -3.67578,2.85157 -4.38672,8.12109 -1.60156,11.84766 2.78516,3.72656 8.04297,4.53515 11.81641,1.8164 14.82421,-9.51171 31.30468,-16.14843 48.58203,-19.56641 3.44922,11.04689 5.42578,22.50391 5.8789,34.07032 -14.01562,-2.64452 -28.23047,-4.07422 -42.48828,-4.27735 -4.71484,0 -8.53515,3.82033 -8.53515,8.53516 0,4.71094 3.82031,8.53126 8.53515,8.53126 14.05469,0.24999 28.0625,1.74609 41.85157,4.46874 -1.12891,9.06642 -3.57813,17.91798 -7.26954,26.27735 -8.26953,-3.38282 -17.11718,-5.12891 -26.05078,-5.14454 -38.44922,0 -68.26562,32.10938 -68.26562,59.73439 -0.0312,4.88671 0.97265,9.72655 2.9414,14.20311 -28.76172,7.83203 -58.46484,11.66797 -88.27343,11.39453 -29.8086,0.27344 -59.51172,-3.5625 -88.27735,-11.39453 1.96875,-4.47656 2.97266,-9.3164 2.94141,-14.20311 0,-27.62501 -29.81641,-59.73439 -68.26562,-59.73439 -8.933598,0.0156 -17.781254,1.76172 -26.050786,5.14454 -3.691406,-8.35937 -6.140624,-17.21093 -7.269531,-26.27735 13.792969,-2.72265 27.796877,-4.21875 41.855467,-4.46874 4.71094,0 8.53125,-3.82032 8.53125,-8.53126 0,-4.71483 -3.82031,-8.53516 -8.53125,-8.53516 -14.26172,0.20313 -28.480467,1.63283 -42.492186,4.27735 0.449219,-11.5625 2.425782,-23.01952 5.875,-34.06641 17.277344,3.41407 33.757806,10.05079 48.582036,19.5625 3.77343,2.71486 9.03124,1.91016 11.8164,-1.8164 2.78906,-3.72265 2.07813,-8.99609 -1.59766,-11.84766 -16.0039,-10.65232 -33.89453,-18.1445 -52.714838,-22.0742 3.496094,-8.06641 7.589844,-15.86327 12.25,-23.31641 1.339844,-2.14453 1.660158,-4.77343 0.871094,-7.17577 z m 0,0"
       id="path8-75" />
  </g>
</svg>
