<?xml version="1.0" encoding="UTF-8" standalone="no"?>
<!-- Generator: Adobe Illustrator 19.0.0, SVG Export Plug-In . SVG Version: 6.00 Build 0)  -->

<svg
   xmlns:dc="http://purl.org/dc/elements/1.1/"
   xmlns:cc="http://creativecommons.org/ns#"
   xmlns:rdf="http://www.w3.org/1999/02/22-rdf-syntax-ns#"
   xmlns:svg="http://www.w3.org/2000/svg"
   xmlns="http://www.w3.org/2000/svg"
   xmlns:sodipodi="http://sodipodi.sourceforge.net/DTD/sodipodi-0.dtd"
   xmlns:inkscape="http://www.inkscape.org/namespaces/inkscape"
   version="1.1"
   id="Capa_1"
   x="0px"
   y="0px"
   viewBox="0 0 512 512"
   style="enable-background:new 0 0 512 512;"
   xml:space="preserve"
   sodipodi:docname="menu.svg"
   inkscape:version="0.92.4 (5da689c313, 2019-01-14)"><metadata
   id="metadata51"><rdf:RDF><cc:Work
       rdf:about=""><dc:format>image/svg+xml</dc:format><dc:type
         rdf:resource="http://purl.org/dc/dcmitype/StillImage" /></cc:Work></rdf:RDF></metadata><defs
   id="defs49" /><sodipodi:namedview
   pagecolor="#ffffff"
   bordercolor="#666666"
   borderopacity="1"
   objecttolerance="10"
   gridtolerance="10"
   guidetolerance="10"
   inkscape:pageopacity="0"
   inkscape:pageshadow="2"
   inkscape:window-width="1582"
   inkscape:window-height="1475"
   id="namedview47"
   showgrid="false"
   inkscape:zoom="0.4609375"
   inkscape:cx="143.18644"
   inkscape:cy="256"
   inkscape:window-x="0"
   inkscape:window-y="0"
   inkscape:window-maximized="0"
   inkscape:current-layer="g14" />
<g
   transform="translate(1 1)"
   id="g14">
	<g
   id="g12"
   style="fill:#f8f8ff;fill-opacity:1">
		<g
   id="g10"
   style="fill:#f8f8ff;fill-opacity:1">
			<path
   d="M255-1C113.618-1-1,113.618-1,255s114.618,256,256,256s256-114.618,256-256S396.382-1,255-1z M255,468.333     c-117.818,0-213.333-95.515-213.333-213.333S137.182,41.667,255,41.667S468.333,137.182,468.333,255S372.818,468.333,255,468.333     z"
   id="path2"
   style="fill:#f8f8ff;fill-opacity:1" />
			<path
   d="M361.667,148.333H148.333c-11.782,0-21.333,9.551-21.333,21.333c0,11.782,9.551,21.333,21.333,21.333h213.333     c11.782,0,21.333-9.551,21.333-21.333C383,157.885,373.449,148.333,361.667,148.333z"
   id="path4"
   style="fill:#f8f8ff;fill-opacity:1" />
			<path
   d="M361.667,233.667H148.333C136.551,233.667,127,243.218,127,255s9.551,21.333,21.333,21.333h213.333     c11.782,0,21.333-9.551,21.333-21.333S373.449,233.667,361.667,233.667z"
   id="path6"
   style="fill:#f8f8ff;fill-opacity:1" />
			<path
   d="M361.667,319H148.333C136.551,319,127,328.551,127,340.333c0,11.782,9.551,21.333,21.333,21.333h213.333     c11.782,0,21.333-9.551,21.333-21.333C383,328.551,373.449,319,361.667,319z"
   id="path8"
   style="fill:#f8f8ff;fill-opacity:1" />
		</g>
	</g>
</g>
<g
   id="g16">
</g>
<g
   id="g18">
</g>
<g
   id="g20">
</g>
<g
   id="g22">
</g>
<g
   id="g24">
</g>
<g
   id="g26">
</g>
<g
   id="g28">
</g>
<g
   id="g30">
</g>
<g
   id="g32">
</g>
<g
   id="g34">
</g>
<g
   id="g36">
</g>
<g
   id="g38">
</g>
<g
   id="g40">
</g>
<g
   id="g42">
</g>
<g
   id="g44">
</g>
</svg>