<svg height="512" viewBox="0 0 60 60" width="512" xmlns="http://www.w3.org/2000/svg"><g id="046---Noodles" fill="none"><g id="Icons" transform="translate(1 1)"><path id="Shape" d="m56 30c0 2.6521649-1.0535684 5.195704-2.9289322 7.0710678s-4.4189029 2.9289322-7.0710678 2.9289322h-9c-.22 0-.43-.01-.64-.02 3.7823796-.2023309 6.7165397-3.3785502 6.6190324-7.1650824-.0975073-3.7865321-3.1912522-6.8075264-6.9790324-6.8149176h-8.16c1.5878719-3.6441314 5.184949-6.0002954 9.16-6h9c5.5228475 0 10 4.4771525 10 10z" fill="#fec108"/><path id="Shape" d="m53 30c0 2.6521649-1.0535684 5.195704-2.9289322 7.0710678s-4.4189029 2.9289322-7.0710678 2.9289322h-6c-.22 0-.43-.01-.64-.02 3.7823796-.2023309 6.7165397-3.3785502 6.6190324-7.1650824-.0975073-3.7865321-3.1912522-6.8075264-6.9790324-6.8149176h-8.16c1.5878719-3.6441314 5.184949-6.0002954 9.16-6h6c5.5228475 0 10 4.4771525 10 10z" fill="#ffdc00"/><path id="Shape" d="m58 3v4h-48c-1.10320187-.0032948-1.9967052-.89679813-2-2 .00816722-1.10116878.89883122-1.99183278 2-2z" fill="#f57c00"/><path id="Shape" d="m55 3v4h-45c-1.10320187-.0032948-1.9967052-.89679813-2-2 .00816722-1.10116878.89883122-1.99183278 2-2z" fill="#ff9801"/><path id="Shape" d="m16 2 .0000277 20h-4.0000277v-20c.0032948-1.10320187.8967981-1.9967052 2-2 .5305905-.00282307 1.0395388.2101411 1.41.59.3798589.3704612.5928231.87940947.59 1.41z" fill="#ffe0b2"/><path id="Shape" d="m20 2 .0000277 20.51h-.0100277c-.9605531-.3382538-1.97163-.5107117-2.99-.51h-1v-20c.0032948-1.10320187.8967981-1.9967052 2-2 .5305905-.00282307 1.0395388.2101411 1.41.59.3798589.3704612.5928231.87940947.59 1.41z" fill="#dfc49c"/><path id="Shape" d="m24.48 26h-2.48c-.1770982-.0002599-.3540623.009757-.53.03-2.726194.2044658-5.0832523 1.9788355-6.0337383 4.5421373-.9504861 2.5633018-.320085 5.4454375 1.6137383 7.3778627.0448767.048914.0952042.0925311.15.13.6981742.6791494 1.5383753 1.1948826 2.46 1.51v.01c-.8616731.2656098-1.7583188.4004437-2.66.4h-6c-4.97056275 0-9-4.0294373-9-9s4.02943725-9 9-9h6c1.01837-.0007117 2.0294469.1717462 2.99.51h.01c1.8300791.6507562 3.4012794 1.8747492 4.48 3.49z" fill="#f57c00"/><path id="Shape" d="m15 33c-.0047808 1.8574877.7333387 3.6397763 2.05 4.95.0448767.048914.0952042.0925311.15.13l-.54 1.52c-.8616731.2656098-1.7583188.4004437-2.66.4h-3c-4.97056275 0-9-4.0294373-9-9s4.02943725-9 9-9h3c3.0054869-.0019326 5.8128132 1.4993114 7.48 4l-.01.03c-3.6504017.2679211-6.4740514 3.3097817-6.47 6.97z" fill="#ff9801"/><path id="Shape" d="m57 40h-56c-.55228475 0-1 .4477153-1 1v3c0 5.5228475 4.4771525 10 10 10h5v3c0 .5522847.4477153 1 1 1h26c.5522847 0 1-.4477153 1-1v-3h5c5.5228475 0 10-4.4771525 10-10v-3c0-.5522847-.4477153-1-1-1z" fill="#6a1b9a"/><path id="Shape" d="m55 41v3c0 5.5228475-4.4771525 10-10 10h-35c-5.5228475 0-10-4.4771525-10-10v-3c0-.5522847.44771525-1 1-1h53c.5522847 0 1 .4477153 1 1z" fill="#9d27b0"/><path id="Shape" d="m43 33c.0039137 3.7257774-2.918668 6.7980094-6.64 6.98-.1192392.0166233-.2396532.0233129-.36.02h-14c-.7971346.0014567-1.5886121-.1338386-2.34-.4v-.01c-.9216247-.3151174-1.7618258-.8308506-2.46-1.51-.0547958-.0374689-.1051233-.081086-.15-.13-1.9338233-1.9324252-2.5642244-4.8145609-1.6137383-7.3778627.950486-2.5633018 3.3075443-4.3376715 6.0337383-4.5421373.1759377-.020243.3529018-.0302599.53-.03h14c3.8659932 0 7 3.1340068 7 7z" fill="#dfc49c"/><path id="Shape" d="m40 33c0 3.8659932-3.1340068 7-7 7h-11c-3.8659932 0-7-3.1340068-7-7s3.1340068-7 7-7h11c3.8659932 0 7 3.1340068 7 7z" fill="#ffe0b2"/></g><g id="Layer_10" fill="#000"><path id="Shape" d="m19 34c0 2.209139 1.790861 4 4 4h14c2.209139 0 4-1.790861 4-4s-1.790861-4-4-4h-14c-2.209139 0-4 1.790861-4 4zm20 0c0 1.1045695-.8954305 2-2 2h-14c-1.1045695 0-2-.8954305-2-2s.8954305-2 2-2h14c1.1045695 0 2 .8954305 2 2z"/><path id="Shape" d="m59 3h-37c-.001031-1.18265114-.6981371-2.25387379-1.779036-2.7337929-1.0808988-.47991911-2.343017-.27859201-3.220964.5137929-.8773783-.79427025-2.1404831-.99672922-3.2221519-.51646827s-1.778597 1.55297454-1.7778481 2.73646827c-1.2 0-2.136-.1-3.117.883-.8543632.85783681-1.10935013 2.14514592-.64650352 3.26389231s1.55279779 1.84962909 2.76350352 1.85310769h1v13c-4.30832373-.0056682-8.13464277 2.7521428-9.49173868 6.8411495-1.3570959 4.0890068.06097837 8.5873736 3.51773868 11.1588505h-4.026c-1.1045695 0-2 .8954305-2 2v3c.0071635 6.0721626 4.92783745 10.9928365 11 11h4v2c0 1.1045695.8954305 2 2 2h26c1.1045695 0 2-.8954305 2-2v-2h4c6.0721626-.0071635 10.9928365-4.9278374 11-11v-3c0-1.1045695-.8954305-2-2-2h-4.695c3.9305997-2.7520103 5.6224154-7.7352607 4.1797578-12.3114943-1.4426577-4.5762336-5.6865107-7.6882643-10.4847578-7.6885057h-9c-4.1310277.001441-7.9123106 2.3193505-9.788 6h-2.239c-1.0304568-1.3748746-2.3991537-2.4597039-3.973-3.149v-13.851h37c.5522847 0 1-.44771525 1-1v-4c0-.55228475-.4477153-1-1-1zm-41 0c.0056201-.40007517.2491743-.7582884.6191515-.91063197.3699773-.15234357.7951482-.06948775 1.0808485.21063197.1903777.18328017.2985749.43574015.3.7v19.219c-.6576091-.1400501-1.3276663-.2134213-2-.219zm-4 0c0-.55228475.4477153-1 1-1s1 .44771525 1 1v19h-2zm-3 4c-.4000752-.00562006-.7582884-.2491743-.910632-.61915154-.15234354-.36997725-.0694877-.79514815.210632-1.08084846.346-.346.57-.3 1.7-.3v2zm6 51v-2h26v2zm41-16v2h-8c-.5522847 0-1 .4477153-1 1s.4477153 1 1 1h7.941c-.5134713 4.5517384-4.3603956 7.9937912-8.941 8h-38c-4.58060438-.0062088-8.42752866-3.4482616-8.941-8h43.941c.5522847 0 1-.4477153 1-1s-.4477153-1-1-1h-44v-2zm-20-20h9c4.9705627 0 9 4.0294373 9 9s-4.0294373 9-9 9h-4.726c.6739827-.5919843 1.2444806-1.2922637 1.688-2.072.249.1.092.072 3.038.072 3.8659932-.0000001 6.9999999-3.1340068 6.9999999-7s-3.1340067-6.9999999-6.9999999-7h-4c-.5522847 0-1 .4477153-1 1s.4477153 1 1 1h4c2.7614237 0 5 2.2385763 5 5s-2.2385763 5-5 5h-2.263c.1722015-.6528012.2605789-1.3248727.263-2h2c1.6568542 0 3-1.3431458 3-3s-1.3431458-3-3-3c-4.381 0-4.234-.056-4.58.133-1.4724209-1.370034-3.4087776-2.1320726-5.42-2.133h-6.46c1.6628833-2.4952051 4.4614651-3.9957852 7.46-4zm5.918 8h3.082c.5522847 0 1 .4477153 1 1s-.4477153 1-1 1c-2.584 0-2-.012-2.254.035-.1809782-.7132239-.4596116-1.3980295-.828-2.035zm-6.918-2c3.3137085 0 6 2.6862915 6 6s-2.6862915 6-6 6h-14c-3.3137085 0-6-2.6862915-6-6s2.6862915-6 6-6zm-25 5h3.069c-.135328 1.0029561-.0693764 2.0228268.194 3h-3.263c-2.209139 0-4-1.790861-4-4s1.790861-4 4-4h5.726c-.9353746.8207169-1.6669912 1.8477876-2.137 3h-3.589c-.5522847 0-1 .4477153-1 1s.4477153 1 1 1zm11.283-7c-1.0124607-.0299923-2.0214774.1315046-2.974.476-1.466-.62-1.909-.476-8.309-.476-3.3137085 0-6 2.6862915-6 6s2.6862915 6 6 6h4.082c.4367798.7508079.9919238 1.4261657 1.644 2h-5.726c-4.418278 0-8-3.581722-8-8s3.581722-8 8-8h6c1.9460177-.0001406 3.8249506.7111723 5.283 2zm34.717-19h-36v-2h36z"/></g></g></svg>