<?xml version="1.0" encoding="UTF-8" standalone="no"?>
<svg
   xmlns:dc="http://purl.org/dc/elements/1.1/"
   xmlns:cc="http://creativecommons.org/ns#"
   xmlns:rdf="http://www.w3.org/1999/02/22-rdf-syntax-ns#"
   xmlns:svg="http://www.w3.org/2000/svg"
   xmlns="http://www.w3.org/2000/svg"
   xmlns:sodipodi="http://sodipodi.sourceforge.net/DTD/sodipodi-0.dtd"
   xmlns:inkscape="http://www.inkscape.org/namespaces/inkscape"
   id="Layer_1"
   enable-background="new 0 0 480.115 480.115"
   height="200"
   viewBox="0 0 187.54492 187.54492"
   width="200"
   version="1.1"
   sodipodi:docname="online-shopping.svg"
   inkscape:version="0.92.4 (5da689c313, 2019-01-14)">
  <metadata
     id="metadata9">
    <rdf:RDF>
      <cc:Work
         rdf:about="">
        <dc:format>image/svg+xml</dc:format>
        <dc:type
           rdf:resource="http://purl.org/dc/dcmitype/StillImage" />
        <dc:title></dc:title>
      </cc:Work>
    </rdf:RDF>
  </metadata>
  <defs
     id="defs7" />
  <sodipodi:namedview
     pagecolor="#ffffff"
     bordercolor="#666666"
     borderopacity="1"
     objecttolerance="10"
     gridtolerance="10"
     guidetolerance="10"
     inkscape:pageopacity="0"
     inkscape:pageshadow="2"
     inkscape:window-width="1920"
     inkscape:window-height="1000"
     id="namedview5"
     showgrid="false"
     inkscape:zoom="0.4609375"
     inkscape:cx="256"
     inkscape:cy="256"
     inkscape:window-x="-11"
     inkscape:window-y="-11"
     inkscape:window-maximized="1"
     inkscape:current-layer="Layer_1" />
  <path
     d="m 178.13833,105.87706 v 65.99064 c 0,8.61236 -7.00937,15.61908 -15.625,15.61908 H 25.013273 c -8.615628,0 -15.625006,-7.00672 -15.625006,-15.61908 v -65.99064 c 0,-1.72513 1.399219,-3.12382 3.125001,-3.12382 1.725782,0 3.125001,1.39869 3.125001,3.12382 v 65.99064 c 0,5.16718 4.205861,9.37145 9.375004,9.37145 H 162.51333 c 5.16914,0 9.375,-4.20427 9.375,-9.37145 v -65.99064 c 0,-1.72513 1.39922,-3.12382 3.125,-3.12382 1.72578,0 3.125,1.39869 3.125,3.12382 z M 20.325771,50.038821 c 0,1.72513 1.399219,3.12382 3.125001,3.12382 171.314128,0 161.607878,0.30262 162.846548,-0.65444 0.63086,-0.48888 1.06446,-1.19994 1.18281,-2.0379 0.17344,-1.25499 1.32696,1.90553 -20.53672,-48.5304494 -0.49571,-1.14253993 -1.62188,-1.88170993 -2.86758,-1.88170993 H 23.450772 c -1.245313,0 -2.371876,0.73956 -2.867579,1.88170993 L 0.27068508,48.797111 c -0.35898453,0.82859 -0.25742199,-0.48654 -0.25742199,20.62227 0.02226564,14.2079 11.58750491,25.76641 25.78125991,25.76641 9.757426,0 18.272664,-5.46277 22.649619,-13.49333 9.775395,17.95766 35.525015,17.97835 45.319159,0.0117 9.785159,17.95101 35.523839,17.95687 45.312519,0 4.37383,8.02391 12.88985,13.48122 22.65626,13.48122 14.21602,0 25.78126,-11.56085 25.78126,-25.77149 0,-1.72513 -1.39922,-3.12382 -3.125,-3.12382 -1.72579,0 -3.125,1.39869 -3.125,3.12382 0,10.76546 -8.76173,19.52386 -19.53126,19.52386 -10.76954,0 -19.53126,-8.7584 -19.53126,-19.52386 0,-1.72513 -1.39922,-3.12382 -3.125,-3.12382 -1.72578,0 -3.125,1.39869 -3.125,3.12382 0,10.76546 -8.76173,19.52386 -19.53126,19.52386 -10.76954,0 -19.531257,-8.7584 -19.531257,-19.52386 0,-1.72513 -1.39922,-3.12382 -3.125002,-3.12382 -1.725782,0 -3.125001,1.39869 -3.125001,3.12382 0,10.76546 -8.761722,19.52386 -19.531258,19.52386 -10.530473,0 -19.531258,-8.4593 -19.531258,-19.68005 0,-1.72513 -1.399219,-3.12382 -3.125001,-3.12382 -1.725782,0 -3.125002,1.39869 -3.125002,3.12382 0,11.12626 -8.944925,19.68005 -19.531258,19.68005 -10.752738,0 -19.5144604,-8.76075 -19.5312573,-19.52386 V 50.686231 L 25.502336,6.3053816 H 162.02426 L 179.62818,46.915011 H 23.450772 c -1.725782,0 -3.125001,1.39869 -3.125001,3.12381 z M 32.825776,127.3533 c 0,-8.09537 6.588675,-14.68194 14.687506,-14.68194 8.098832,0 14.687897,6.58618 14.687897,14.68194 0,8.09576 -6.588675,14.68194 -14.687897,14.68194 -8.098831,0 -14.687506,-6.58618 -14.687506,-14.68194 z m 6.250003,0 c 0,4.65058 3.784767,8.43431 8.437503,8.43431 4.652737,0 8.437894,-3.78334 8.437894,-8.43431 0,-4.65097 -3.785157,-8.43431 -8.437894,-8.43431 -4.652736,0 -8.437503,3.78373 -8.437503,8.43431 z m 35.416811,14.68194 c -1.725782,0 -3.125001,-1.39869 -3.125001,-3.12381 v -23.11586 c 0,-1.72513 1.399219,-3.12382 3.125001,-3.12382 h 7.708206 c 5.97344,0 10.833208,4.85793 10.833208,10.8291 0,5.97118 -4.859768,10.82872 -10.833208,10.82872 h -4.583205 v 4.58146 c 0,1.72552 -1.399219,3.12421 -3.125001,3.12421 z m 3.125001,-13.95292 h 4.583205 c 2.527345,0 4.583206,-2.05508 4.583206,-4.58108 0,-2.52599 -2.056251,-4.58146 -4.583206,-4.58146 h -4.583205 z m 43.124629,-9.16293 c 1.72578,0 3.125,-1.39869 3.125,-3.12382 0,-1.72513 -1.39922,-3.12382 -3.125,-3.12382 h -15.41681 c -1.72578,0 -3.125,1.39869 -3.125,3.12382 v 23.11586 c 0,1.72512 1.39922,3.12381 3.125,3.12381 h 15.41681 c 1.72578,0 3.125,-1.39869 3.125,-3.12381 0,-1.72513 -1.39922,-3.12382 -3.125,-3.12382 h -12.29181 v -5.31049 h 7.57813 c 1.72578,0 3.125,-1.39869 3.125,-3.12382 0,-1.72513 -1.39922,-3.12382 -3.125,-3.12382 h -7.57813 v -5.31049 h 12.29181 z m 18.5418,19.99204 v -12.79867 l 9.6918,14.5316 c 1.70938,2.56349 5.725,1.34793 5.725,-1.73293 v -23.11586 c 0,-1.72513 -1.39922,-3.12382 -3.125,-3.12382 -1.72578,0 -3.125,1.39869 -3.125,3.12382 v 12.79867 l -9.6918,-14.53161 c -1.70898,-2.56348 -5.725,-1.34793 -5.725,1.73294 v 23.11586 c 0,1.72512 1.39922,3.12381 3.125,3.12381 1.72578,0 3.125,-1.39869 3.125,-3.12381 z M 35.950778,163.2772 H 151.57582 c 1.72578,0 3.125,-1.39869 3.125,-3.12382 0,-1.72513 -1.39922,-3.12381 -3.125,-3.12381 H 35.950778 c -1.725782,0 -3.125002,1.39868 -3.125002,3.12381 0,1.72513 1.39922,3.12382 3.125002,3.12382 z"
     id="path2"
     inkscape:connector-curvature="0"
     style="stroke-width:1;fill:#f8f8ff;fill-opacity:0.78431374" />
</svg>
