<?xml version="1.0" encoding="iso-8859-1"?>
<!-- Generator: Adobe Illustrator 19.0.0, SVG Export Plug-In . SVG Version: 6.00 Build 0)  -->
<svg version="1.1" id="Capa_1" xmlns="http://www.w3.org/2000/svg" xmlns:xlink="http://www.w3.org/1999/xlink" x="0px" y="0px"
	 viewBox="0 0 511.999 511.999" style="enable-background:new 0 0 511.999 511.999;" xml:space="preserve">
<g>
	<g>
		<path d="M466.714,158.281c-4.199,0-7.604,3.405-7.604,7.604s3.405,7.604,7.604,7.604c5.798,0,10.517,4.717,10.517,10.517v81.101
			c0,5.798-4.718,10.517-10.517,10.517c-4.199,0-7.604,3.405-7.604,7.604s3.405,7.604,7.604,7.604
			c14.185,0,25.725-11.54,25.725-25.725v-81.101C492.438,169.822,480.898,158.281,466.714,158.281z"/>
	</g>
</g>
<g>
	<g>
		<path d="M280.338,260.653c-3.822-1.754-8.334-0.071-10.078,3.741c-1.755,3.822-0.072,8.334,3.741,10.088
			c1.024,0.466,2.109,0.689,3.163,0.689c2.879,0,5.637-1.653,6.925-4.441C285.833,266.908,284.16,262.396,280.338,260.653z"/>
	</g>
</g>
<g>
	<g>
		<path d="M199.005,264.404c-1.754-3.822-6.266-5.495-10.078-3.751c-3.822,1.754-5.494,6.266-3.751,10.088
			c1.277,2.788,4.035,4.431,6.925,4.431c1.054,0,2.129-0.223,3.153-0.689C199.076,272.728,200.749,268.216,199.005,264.404z"/>
	</g>
</g>
<g>
	<g>
		<path d="M250.277,251.832c-4.157-0.598-8.01,2.291-8.598,6.448c-0.599,4.157,2.29,8.009,6.448,8.608
			c0.365,0.051,0.73,0.071,1.085,0.071c3.721,0,6.975-2.727,7.523-6.529C257.323,256.273,254.434,252.42,250.277,251.832z"/>
	</g>
</g>
<g>
	<g>
		<path d="M227.586,258.28c-0.598-4.157-4.451-7.036-8.608-6.448c-4.157,0.598-7.046,4.441-6.448,8.608
			c0.538,3.792,3.792,6.529,7.513,6.529c0.365,0,0.72-0.03,1.085-0.081C225.284,266.29,228.174,262.447,227.586,258.28z"/>
	</g>
</g>
<g>
	<g>
		<path d="M396.982,184.275c-4.213-12.649-16.013-21.147-29.365-21.147H101.648c-13.347-0.001-25.144,8.497-29.355,21.147
			c-1.327,3.984,0.827,8.29,4.813,9.616c0.797,0.266,1.606,0.391,2.403,0.391c3.185,0,6.152-2.017,7.214-5.204
			c2.14-6.426,8.138-10.744,14.927-10.744h265.968c6.794,0,12.797,4.318,14.936,10.745c1.327,3.984,5.63,6.139,9.616,4.812
			C396.154,192.565,398.309,188.259,396.982,184.275z"/>
	</g>
</g>
<g>
	<g>
		<path d="M365.804,0h-259.85c-4.199,0-7.604,3.405-7.604,7.604v138.768c0,4.199,3.405,7.604,7.604,7.604s7.604-3.405,7.604-7.604
			V15.208H358.2v131.164c0,4.199,3.405,7.604,7.604,7.604c4.199,0,7.604-3.405,7.604-7.604V7.604C373.408,3.405,370.004,0,365.804,0
			z"/>
	</g>
</g>
<g>
	<g>
		<path d="M449.708,165.885c0-20.86-16.971-37.83-37.83-37.83h-21.721c-4.199,0-7.604,3.405-7.604,7.604
			c0,4.199,3.405,7.604,7.604,7.604h21.721c12.474,0,22.622,10.149,22.622,22.622v44.523c-8.3-7.587-19.342-12.222-31.447-12.222
			h-23.26c-14.737,0-27.887,8.676-33.504,22.102c-5.75,13.747-13.822,26.001-23.635,36.414
			c-24.579-20.865-55.555-32.28-88.021-32.28c-32.462,0-63.434,11.416-88.013,32.28c-9.814-10.412-17.887-22.668-23.636-36.415
			c-5.617-13.427-18.768-22.102-33.504-22.102h-23.26c-12.105,0-23.146,4.635-31.448,12.222v-44.523
			c0-12.474,10.149-22.622,22.622-22.622h24.205c4.199,0,7.604-3.405,7.604-7.604s-3.405-7.604-7.604-7.604H57.395
			c-20.859,0-37.83,16.97-37.83,37.83L19.56,465.34c0,25.728,20.931,46.659,46.659,46.659h336.834
			c25.728,0,46.659-20.931,46.659-46.659L449.708,165.885z M234.633,239.63c28.244,0,55.218,9.723,76.827,27.531
			c-21.186,17.408-48.12,27.455-76.823,27.455c-28.702,0-55.638-10.046-76.823-27.454
			C179.423,249.353,206.394,239.63,234.633,239.63z M434.506,465.341c0,17.342-14.109,31.451-31.451,31.451H66.219
			c-17.342,0-31.451-14.109-31.451-31.451V244.924c0-0.026,0.004-0.052,0.004-0.078v-0.156
			c0.085-17.271,14.158-31.296,31.448-31.296h23.26c8.587,0,16.231,5.009,19.474,12.763c21.259,50.827,70.592,83.668,125.683,83.668
			s104.425-32.842,125.682-83.668c3.243-7.753,10.887-12.763,19.474-12.763h23.26c17.283,0,31.352,14.015,31.447,31.276v0.176
			c0,0.029,0.004,0.059,0.004,0.088V465.341z"/>
	</g>
</g>
<g>
	<g>
		<path d="M320.623,47.695H151.137c-4.199,0-7.604,3.405-7.604,7.604c0,4.199,3.405,7.604,7.604,7.604h169.485
			c4.199,0,7.604-3.405,7.604-7.604C328.227,51.1,324.822,47.695,320.623,47.695z"/>
	</g>
</g>
<g>
	<g>
		<path d="M320.623,123.156h-112.77c-4.199,0-7.604,3.405-7.604,7.604c0,4.199,3.405,7.604,7.604,7.604h112.77
			c4.199,0,7.604-3.405,7.604-7.604C328.227,126.56,324.822,123.156,320.623,123.156z"/>
	</g>
</g>
<g>
	<g>
		<path d="M183.499,123.156h-32.361c-4.199,0-7.604,3.405-7.604,7.604c0,4.199,3.404,7.604,7.604,7.604h32.361
			c4.199,0,7.604-3.405,7.604-7.604C191.103,126.56,187.698,123.156,183.499,123.156z"/>
	</g>
</g>
<g>
	<g>
		<path d="M320.623,85.425h-41.176c-4.199,0-7.604,3.405-7.604,7.604s3.405,7.604,7.604,7.604h41.176
			c4.199,0,7.604-3.405,7.604-7.604S324.822,85.425,320.623,85.425z"/>
	</g>
</g>
<g>
	<g>
		<path d="M255.092,85.425H151.137c-4.199,0-7.604,3.405-7.604,7.604s3.404,7.604,7.604,7.604h103.954
			c4.199,0,7.604-3.405,7.604-7.604S259.291,85.425,255.092,85.425z"/>
	</g>
</g>
<g>
	<g>
		<path d="M73.804,429.904c-16.546,0-30.008,13.461-30.008,30.008s13.462,30.008,30.008,30.008s30.008-13.462,30.008-30.008
			S90.35,429.904,73.804,429.904z M73.804,474.712c-8.161,0-14.8-6.64-14.8-14.8s6.64-14.8,14.8-14.8s14.8,6.639,14.8,14.8
			S81.965,474.712,73.804,474.712z"/>
	</g>
</g>
<g>
	<g>
		<path d="M202.47,429.904c-16.546,0-30.008,13.461-30.008,30.008s13.461,30.008,30.008,30.008
			c16.547,0,30.008-13.462,30.008-30.008S219.016,429.904,202.47,429.904z M202.47,474.712c-8.161,0-14.8-6.64-14.8-14.8
			s6.639-14.8,14.8-14.8c8.162,0,14.8,6.639,14.8,14.8S210.631,474.712,202.47,474.712z"/>
	</g>
</g>
<g>
	<g>
		<path d="M331.136,429.904c-16.546,0-30.008,13.461-30.008,30.008s13.462,30.008,30.008,30.008s30.008-13.462,30.008-30.008
			S347.682,429.904,331.136,429.904z M331.136,474.712c-8.161,0-14.8-6.64-14.8-14.8s6.64-14.8,14.8-14.8
			c8.161,0,14.8,6.639,14.8,14.8S339.297,474.712,331.136,474.712z"/>
	</g>
</g>
<g>
	<g>
		<path d="M395.47,429.904c-16.546,0-30.008,13.461-30.008,30.008s13.462,30.008,30.008,30.008s30.008-13.462,30.008-30.008
			S412.016,429.904,395.47,429.904z M395.47,474.712c-8.161,0-14.8-6.64-14.8-14.8s6.64-14.8,14.8-14.8
			c8.161,0,14.8,6.639,14.8,14.8S403.63,474.712,395.47,474.712z"/>
	</g>
</g>
<g>
	<g>
		<path d="M138.137,429.904c-16.546,0-30.008,13.461-30.008,30.008s13.461,30.008,30.008,30.008
			c16.547,0,30.008-13.462,30.008-30.008S154.684,429.904,138.137,429.904z M138.137,474.712c-8.161,0-14.8-6.64-14.8-14.8
			s6.639-14.8,14.8-14.8c8.162,0,14.8,6.639,14.8,14.8S146.298,474.712,138.137,474.712z"/>
	</g>
</g>
<g>
	<g>
		<path d="M266.803,429.904c-16.546,0-30.008,13.461-30.008,30.008s13.462,30.008,30.008,30.008
			c16.546,0,30.008-13.462,30.008-30.008S283.35,429.904,266.803,429.904z M266.803,474.712c-8.161,0-14.8-6.64-14.8-14.8
			s6.64-14.8,14.8-14.8s14.8,6.639,14.8,14.8S274.964,474.712,266.803,474.712z"/>
	</g>
</g>
<g>
	<g>
		<path d="M73.804,312.037c-16.547,0-30.008,13.461-30.008,30.008c0,16.547,13.462,30.008,30.008,30.008
			s30.008-13.462,30.008-30.008C103.812,325.499,90.351,312.037,73.804,312.037z M73.804,356.846c-8.162,0-14.8-6.64-14.8-14.8
			c0-8.161,6.64-14.8,14.8-14.8s14.8,6.639,14.8,14.8S81.966,356.846,73.804,356.846z"/>
	</g>
</g>
<g>
	<g>
		<path d="M202.47,312.037c-16.546,0-30.008,13.461-30.008,30.008c0,16.547,13.462,30.008,30.008,30.008
			c16.546,0,30.008-13.462,30.008-30.008C232.478,325.499,219.016,312.037,202.47,312.037z M202.47,356.846
			c-8.161,0-14.8-6.64-14.8-14.8c0-8.161,6.64-14.8,14.8-14.8c8.161,0,14.8,6.639,14.8,14.8S210.631,356.846,202.47,356.846z"/>
	</g>
</g>
<g>
	<g>
		<path d="M331.136,312.037c-16.547,0-30.008,13.461-30.008,30.008c0,16.547,13.462,30.008,30.008,30.008
			s30.008-13.462,30.008-30.008C361.145,325.499,347.683,312.037,331.136,312.037z M331.136,356.846c-8.162,0-14.8-6.64-14.8-14.8
			c0-8.161,6.64-14.8,14.8-14.8s14.8,6.639,14.8,14.8S339.298,356.846,331.136,356.846z"/>
	</g>
</g>
<g>
	<g>
		<path d="M395.47,312.037c-16.546,0-30.008,13.461-30.008,30.008c0,16.547,13.462,30.008,30.008,30.008
			s30.008-13.462,30.008-30.008S412.016,312.037,395.47,312.037z M395.47,356.846c-8.161,0-14.8-6.64-14.8-14.8
			c0-8.161,6.64-14.8,14.8-14.8c8.161,0,14.8,6.639,14.8,14.8C410.27,350.207,403.63,356.846,395.47,356.846z"/>
	</g>
</g>
<g>
	<g>
		<path d="M138.137,312.037c-16.546,0-30.008,13.461-30.008,30.008c0,16.547,13.462,30.008,30.008,30.008
			c16.546,0,30.008-13.462,30.008-30.008C168.145,325.499,154.683,312.037,138.137,312.037z M138.137,356.846
			c-8.161,0-14.8-6.64-14.8-14.8c0-8.161,6.64-14.8,14.8-14.8c8.161,0,14.8,6.639,14.8,14.8S146.297,356.846,138.137,356.846z"/>
	</g>
</g>
<g>
	<g>
		<path d="M266.803,312.037c-16.546,0-30.008,13.461-30.008,30.008c0,16.547,13.462,30.008,30.008,30.008
			c16.546,0,30.008-13.462,30.008-30.008C296.811,325.499,283.349,312.037,266.803,312.037z M266.803,356.846
			c-8.161,0-14.8-6.64-14.8-14.8c0-8.161,6.64-14.8,14.8-14.8s14.8,6.639,14.8,14.8S274.963,356.846,266.803,356.846z"/>
	</g>
</g>
<g>
	<g>
		<path d="M170.303,370.971c-16.547,0-30.008,13.462-30.008,30.008c0,16.546,13.462,30.008,30.008,30.008
			s30.008-13.462,30.008-30.008C200.312,384.433,186.851,370.971,170.303,370.971z M170.303,415.779c-8.161,0-14.8-6.64-14.8-14.8
			c0-8.161,6.64-14.8,14.8-14.8c8.161,0,14.8,6.64,14.8,14.8C185.104,409.14,178.465,415.779,170.303,415.779z"/>
	</g>
</g>
<g>
	<g>
		<path d="M298.97,370.971c-16.546,0-30.008,13.462-30.008,30.008c0,16.546,13.461,30.008,30.008,30.008
			c16.547,0,30.008-13.462,30.008-30.008C328.978,384.433,315.516,370.971,298.97,370.971z M298.97,415.779
			c-8.161,0-14.8-6.64-14.8-14.8c0-8.161,6.639-14.8,14.8-14.8c8.162,0,14.8,6.64,14.8,14.8
			C313.77,409.14,307.13,415.779,298.97,415.779z"/>
	</g>
</g>
<g>
	<g>
		<path d="M363.303,370.971c-16.546,0-30.008,13.462-30.008,30.008c0,16.546,13.461,30.008,30.008,30.008
			c16.547,0,30.008-13.462,30.008-30.008C393.311,384.433,379.849,370.971,363.303,370.971z M363.303,415.779
			c-8.161,0-14.8-6.64-14.8-14.8c0-8.161,6.639-14.8,14.8-14.8s14.8,6.64,14.8,14.8C378.103,409.14,371.464,415.779,363.303,415.779
			z"/>
	</g>
</g>
<g>
	<g>
		<path d="M105.971,370.971c-16.546,0-30.008,13.462-30.008,30.008c0,16.546,13.462,30.008,30.008,30.008
			c16.546,0,30.008-13.462,30.008-30.008C135.979,384.433,122.517,370.971,105.971,370.971z M105.971,415.779
			c-8.161,0-14.8-6.64-14.8-14.8c0-8.161,6.64-14.8,14.8-14.8c8.161,0,14.8,6.64,14.8,14.8
			C120.771,409.14,114.131,415.779,105.971,415.779z"/>
	</g>
</g>
<g>
	<g>
		<path d="M234.637,370.971c-16.547,0-30.008,13.462-30.008,30.008c0,16.546,13.462,30.008,30.008,30.008
			c16.546,0,30.008-13.462,30.008-30.008C264.645,384.433,251.184,370.971,234.637,370.971z M234.637,415.779
			c-8.161,0-14.8-6.64-14.8-14.8c0-8.161,6.64-14.8,14.8-14.8s14.8,6.64,14.8,14.8C249.437,409.14,242.798,415.779,234.637,415.779z
			"/>
	</g>
</g>
<g>
</g>
<g>
</g>
<g>
</g>
<g>
</g>
<g>
</g>
<g>
</g>
<g>
</g>
<g>
</g>
<g>
</g>
<g>
</g>
<g>
</g>
<g>
</g>
<g>
</g>
<g>
</g>
<g>
</g>
</svg>
